<?xml version="1.0" encoding="utf-8"?>
<!-- Generator: Adobe Illustrator 27.5.0, SVG Export Plug-In . SVG Version: 6.00 Build 0)  -->
<svg version="1.1" id="Layer_1" xmlns="http://www.w3.org/2000/svg" xmlns:xlink="http://www.w3.org/1999/xlink" x="0px" y="0px"
	 viewBox="0 0 432 288" style="enable-background:new 0 0 432 288;" xml:space="preserve">
<g>
	<g>
		<defs>
			<rect id="SVGID_1_" y="0" width="432" height="288"/>
		</defs>
		<use xlink:href="#SVGID_1_"  style="overflow:visible;fill:#F7F7F7;"/>
		<clipPath id="SVGID_00000065788985875347253930000010203010997512471485_">
			<use xlink:href="#SVGID_1_"  style="overflow:visible;"/>
		</clipPath>
		<g style="opacity:0.5;clip-path:url(#SVGID_00000065788985875347253930000010203010997512471485_);">
			<path style="fill:#FFFFFF;" d="M307.707,218.144c-10.001-4.877-16.874-8.966-20.12-10.996
				c-8.738-5.467-13.138-12.039-12.07-18.03c0.723-4.053,3.943-7.248,8.204-8.139c0.964-0.202,1.883-0.292,2.757-0.292
				c7.295,0,11.409,6.293,11.6,6.592l1.15,1.801l0.647-2.035c2.263-7.126,8.902-9.852,14.298-8.861
				c4.042,0.743,8.229,3.898,7.858,10.526C321.398,200.022,313.94,210.918,307.707,218.144z M317.921,222.881
				c-2.953-1.302-5.725-2.58-8.303-3.814c6.347-7.417,13.751-18.476,14.41-30.246c0.365-6.53-3.361-11.477-9.494-12.604
				c-5.653-1.038-12.833,1.635-15.914,8.51c-2.208-2.546-7.531-7.333-15.308-5.706c-5.065,1.06-8.897,4.885-9.764,9.746
				c-1.219,6.836,3.512,14.154,12.978,20.076c3.615,2.261,10.337,6.241,19.774,10.893c-3.109,3.443-5.723,5.834-6.724,6.72
				c-3.73-1.415-25.723-10.148-40.496-24.605c-11.531-11.283-15.824-23.924-11.779-34.68c3.302-8.781,11.842-14.594,22.287-15.17
				c0.767-0.042,1.512-0.063,2.236-0.063c15.411,0,21.377,9.15,21.633,9.556l1.001,1.6l0.762-1.727
				c0.374-0.845,9.412-20.656,32.698-16.624c8.287,1.435,14.636,6.115,17.876,13.178c4.604,10.035,2.445,23.816-5.925,37.811
				C335.314,203.352,328.192,213.342,317.921,222.881z M461.591,249.421c-60.772,3.209-110.758-12.295-141.757-25.705
				c8.356-7.784,15.697-16.83,21.754-26.957c8.713-14.568,10.909-29.028,6.026-39.671c-3.523-7.68-10.397-12.764-19.353-14.315
				c-21.028-3.644-31.37,11.461-34.11,16.326c-2.526-3.003-9.989-9.904-24.673-9.094c-11.248,0.621-20.463,6.929-24.049,16.463
				c-4.337,11.533,0.129,24.951,12.253,36.814c16.425,16.072,41.514,25.171,41.766,25.261l0.54,0.193l0.439-0.369
				c0.35-0.293,3.706-3.145,7.785-7.696c2.504,1.211,5.185,2.462,8.034,3.734c-13.965,12.482-33.441,23.92-59.77,27.889
				c-38.029,5.732-100.708-6.496-172.689-21.831c-66.732-14.218-100.515,2.06-114.94,9.011l0.392,0.921l0.476,0.881
				c14.241-6.862,47.592-22.931,113.655-8.857c59.723,12.723,113.068,23.311,151.433,23.311c8,0,15.352-0.461,21.971-1.458
				c23.042-3.473,44.242-13.648,61.38-29.022c7.716,3.382,16.6,6.89,26.532,10.203c38.034,12.688,77.402,18.061,117.008,15.966
				L461.591,249.421z"/>
			<path style="fill:#FDFDFD;" d="M308.117,217.734c-10.001-4.877-16.874-8.966-20.12-10.996
				c-8.738-5.467-13.138-12.039-12.07-18.03c0.723-4.053,3.943-7.248,8.204-8.139c0.964-0.202,1.883-0.292,2.757-0.292
				c7.295,0,11.409,6.293,11.6,6.592l1.15,1.801l0.647-2.035c2.263-7.126,8.902-9.852,14.298-8.861
				c4.042,0.743,8.229,3.898,7.858,10.526C321.809,199.611,314.351,210.508,308.117,217.734z M318.332,222.47
				c-2.953-1.302-5.725-2.58-8.303-3.813c6.347-7.417,13.751-18.476,14.41-30.246c0.365-6.53-3.361-11.477-9.494-12.604
				c-5.653-1.038-12.833,1.635-15.914,8.51c-2.208-2.546-7.531-7.333-15.308-5.706c-5.065,1.06-8.897,4.885-9.764,9.746
				c-1.219,6.836,3.512,14.154,12.978,20.076c3.615,2.261,10.337,6.241,19.774,10.893c-3.109,3.443-5.723,5.834-6.724,6.72
				c-3.73-1.415-25.723-10.148-40.496-24.605c-11.531-11.283-15.824-23.924-11.779-34.68c3.302-8.781,11.842-14.594,22.287-15.17
				c0.767-0.042,1.512-0.063,2.236-0.063c15.411,0,21.377,9.15,21.633,9.556l1.001,1.6l0.762-1.727
				c0.374-0.845,9.412-20.656,32.698-16.624c8.287,1.435,14.636,6.115,17.876,13.178c4.604,10.035,2.445,23.816-5.925,37.811
				C335.725,202.942,328.603,212.931,318.332,222.47z M462.002,249.01c-60.772,3.209-110.758-12.295-141.757-25.705
				c8.356-7.784,15.697-16.83,21.754-26.958c8.713-14.568,10.909-29.028,6.026-39.671c-3.523-7.68-10.396-12.764-19.353-14.315
				c-21.028-3.644-31.37,11.461-34.11,16.326c-2.526-3.003-9.989-9.904-24.673-9.094c-11.248,0.621-20.463,6.929-24.049,16.463
				c-4.337,11.533,0.129,24.951,12.253,36.814c16.425,16.072,41.514,25.171,41.766,25.261l0.541,0.193l0.439-0.369
				c0.35-0.293,3.706-3.145,7.785-7.696c2.504,1.211,5.185,2.462,8.034,3.734c-13.965,12.482-33.441,23.92-59.77,27.889
				c-38.029,5.732-100.707-6.496-172.689-21.831c-66.732-14.218-100.515,2.06-114.941,9.011l0.393,0.921l0.476,0.881
				c14.241-6.862,47.592-22.931,113.655-8.857c59.723,12.723,113.068,23.311,151.433,23.311c8,0,15.352-0.461,21.971-1.458
				c23.042-3.473,44.242-13.648,61.38-29.022c7.716,3.382,16.6,6.89,26.532,10.203c38.034,12.688,77.402,18.061,117.008,15.966
				L462.002,249.01z"/>
			<path style="fill:#FAFAFA;" d="M308.528,217.323c-10.001-4.877-16.874-8.966-20.12-10.996
				c-8.738-5.467-13.138-12.039-12.07-18.03c0.723-4.053,3.943-7.248,8.204-8.139c0.964-0.202,1.883-0.292,2.757-0.292
				c7.295,0,11.409,6.293,11.6,6.592l1.15,1.801l0.647-2.035c2.263-7.126,8.902-9.852,14.298-8.861
				c4.042,0.743,8.229,3.898,7.858,10.526C322.22,199.2,314.762,210.097,308.528,217.323z M318.742,222.059
				c-2.953-1.302-5.725-2.58-8.303-3.813c6.347-7.418,13.751-18.476,14.41-30.246c0.365-6.53-3.361-11.477-9.494-12.604
				c-5.653-1.038-12.833,1.635-15.914,8.51c-2.208-2.546-7.531-7.333-15.308-5.706c-5.065,1.06-8.897,4.885-9.764,9.746
				c-1.219,6.836,3.512,14.154,12.978,20.076c3.615,2.261,10.337,6.241,19.774,10.893c-3.109,3.443-5.723,5.834-6.724,6.72
				c-3.73-1.415-25.723-10.148-40.496-24.605c-11.531-11.283-15.824-23.924-11.779-34.68c3.302-8.781,11.842-14.594,22.287-15.17
				c0.767-0.042,1.512-0.063,2.236-0.063c15.411,0,21.377,9.15,21.633,9.556l1.001,1.6l0.762-1.727
				c0.374-0.845,9.412-20.656,32.698-16.624c8.287,1.435,14.636,6.115,17.876,13.178c4.604,10.035,2.445,23.816-5.925,37.811
				C336.136,202.531,329.014,212.52,318.742,222.059z M462.412,248.6c-60.772,3.209-110.758-12.295-141.757-25.705
				c8.356-7.784,15.697-16.83,21.754-26.958c8.713-14.568,10.909-29.028,6.026-39.671c-3.523-7.68-10.396-12.764-19.353-14.315
				c-21.028-3.644-31.37,11.461-34.11,16.326c-2.526-3.003-9.989-9.904-24.673-9.094c-11.248,0.621-20.463,6.929-24.049,16.463
				c-4.337,11.533,0.129,24.951,12.253,36.814c16.425,16.072,41.514,25.171,41.766,25.261l0.541,0.193l0.439-0.369
				c0.35-0.293,3.706-3.145,7.785-7.696c2.504,1.211,5.185,2.462,8.034,3.734c-13.965,12.482-33.441,23.92-59.77,27.889
				c-38.029,5.732-100.707-6.496-172.689-21.831c-66.732-14.218-100.515,2.06-114.94,9.011l0.393,0.921l0.476,0.881
				c14.241-6.862,47.592-22.931,113.655-8.857c59.723,12.723,113.068,23.311,151.433,23.311c8,0,15.352-0.461,21.971-1.458
				c23.043-3.473,44.242-13.648,61.38-29.022c7.716,3.382,16.6,6.89,26.532,10.203c38.034,12.688,77.402,18.061,117.008,15.966
				L462.412,248.6z"/>
			<path style="fill:#F8F8F8;" d="M308.939,216.912c-10.001-4.877-16.874-8.966-20.12-10.996
				c-8.738-5.467-13.138-12.039-12.07-18.03c0.723-4.053,3.943-7.248,8.204-8.139c0.964-0.202,1.883-0.292,2.757-0.292
				c7.295,0,11.409,6.293,11.6,6.592l1.15,1.801l0.647-2.035c2.263-7.126,8.902-9.852,14.298-8.861
				c4.042,0.743,8.229,3.898,7.858,10.526C322.63,198.789,315.172,209.686,308.939,216.912z M319.153,221.648
				c-2.953-1.302-5.725-2.58-8.303-3.814c6.347-7.417,13.751-18.476,14.41-30.246c0.365-6.53-3.361-11.478-9.494-12.604
				c-5.653-1.038-12.833,1.635-15.914,8.51c-2.208-2.546-7.531-7.333-15.308-5.706c-5.065,1.06-8.897,4.885-9.764,9.746
				c-1.219,6.836,3.512,14.154,12.978,20.076c3.615,2.261,10.337,6.241,19.774,10.893c-3.109,3.443-5.723,5.834-6.724,6.72
				c-3.73-1.415-25.723-10.148-40.496-24.605c-11.531-11.283-15.824-23.924-11.779-34.68c3.302-8.781,11.842-14.594,22.287-15.17
				c0.767-0.042,1.512-0.063,2.236-0.063c15.411,0,21.377,9.15,21.633,9.556l1.001,1.6l0.762-1.727
				c0.374-0.845,9.412-20.656,32.698-16.624c8.287,1.435,14.636,6.115,17.876,13.178c4.605,10.035,2.445,23.816-5.925,37.811
				C336.546,202.12,329.425,212.11,319.153,221.648z M462.823,248.189c-60.772,3.209-110.758-12.295-141.757-25.705
				c8.356-7.784,15.697-16.83,21.754-26.958c8.713-14.568,10.909-29.028,6.026-39.671c-3.523-7.68-10.396-12.764-19.353-14.315
				c-21.028-3.644-31.37,11.461-34.11,16.326c-2.526-3.003-9.989-9.904-24.673-9.094c-11.248,0.621-20.463,6.929-24.049,16.463
				c-4.337,11.533,0.129,24.951,12.253,36.814c16.425,16.072,41.514,25.171,41.766,25.261l0.541,0.193l0.439-0.369
				c0.35-0.293,3.706-3.145,7.785-7.696c2.504,1.211,5.185,2.462,8.034,3.734c-13.965,12.482-33.441,23.92-59.77,27.889
				c-38.029,5.732-100.707-6.496-172.689-21.831c-66.733-14.218-100.515,2.06-114.941,9.011l0.393,0.921l0.476,0.881
				c14.241-6.862,47.592-22.931,113.655-8.857c59.723,12.723,113.068,23.311,151.433,23.311c8,0,15.352-0.461,21.971-1.459
				c23.042-3.473,44.242-13.648,61.38-29.022c7.716,3.382,16.6,6.89,26.532,10.203c38.034,12.688,77.402,18.061,117.008,15.966
				L462.823,248.189z"/>
			<path style="fill:#F6F6F6;" d="M309.35,216.501c-10.001-4.877-16.874-8.966-20.12-10.996c-8.738-5.467-13.138-12.039-12.07-18.03
				c0.723-4.053,3.943-7.248,8.204-8.139c0.964-0.202,1.883-0.292,2.757-0.292c7.295,0,11.409,6.293,11.6,6.592l1.15,1.801
				l0.647-2.035c2.263-7.126,8.902-9.852,14.298-8.861c4.042,0.743,8.229,3.898,7.858,10.526
				C323.041,198.379,315.583,209.275,309.35,216.501z M319.564,221.238c-2.953-1.302-5.725-2.58-8.303-3.814
				c6.347-7.417,13.751-18.476,14.41-30.246c0.365-6.53-3.361-11.478-9.494-12.604c-5.653-1.038-12.833,1.635-15.914,8.51
				c-2.208-2.546-7.531-7.333-15.308-5.706c-5.065,1.06-8.897,4.885-9.764,9.746c-1.219,6.836,3.512,14.154,12.978,20.076
				c3.615,2.261,10.337,6.241,19.775,10.893c-3.109,3.443-5.723,5.834-6.724,6.72c-3.73-1.415-25.723-10.148-40.496-24.605
				c-11.531-11.283-15.824-23.924-11.779-34.68c3.302-8.781,11.842-14.594,22.287-15.17c0.767-0.043,1.512-0.063,2.236-0.063
				c15.411,0,21.377,9.15,21.633,9.556l1.001,1.6l0.762-1.727c0.374-0.845,9.412-20.656,32.698-16.625
				c8.287,1.435,14.636,6.115,17.876,13.178c4.605,10.035,2.445,23.816-5.925,37.811
				C336.957,201.709,329.836,211.699,319.564,221.238z M463.234,247.778c-60.772,3.209-110.758-12.295-141.757-25.705
				c8.356-7.784,15.697-16.83,21.754-26.958c8.713-14.568,10.909-29.028,6.026-39.671c-3.523-7.68-10.396-12.764-19.353-14.315
				c-21.028-3.644-31.37,11.461-34.11,16.326c-2.526-3.003-9.989-9.904-24.673-9.094c-11.248,0.621-20.463,6.929-24.049,16.463
				c-4.337,11.533,0.129,24.951,12.253,36.814c16.425,16.072,41.514,25.171,41.766,25.261l0.54,0.193l0.44-0.369
				c0.35-0.294,3.706-3.145,7.785-7.696c2.504,1.211,5.186,2.462,8.034,3.734c-13.965,12.482-33.441,23.92-59.77,27.889
				c-38.029,5.732-100.707-6.496-172.689-21.831c-66.732-14.218-100.515,2.06-114.94,9.011l0.393,0.921l0.476,0.881
				c14.241-6.862,47.592-22.931,113.655-8.857c59.723,12.723,113.068,23.311,151.433,23.311c8,0,15.352-0.461,21.971-1.458
				c23.042-3.473,44.242-13.648,61.38-29.022c7.716,3.382,16.6,6.89,26.532,10.203c38.034,12.688,77.402,18.061,117.008,15.966
				L463.234,247.778z"/>
			<path style="fill:#F4F4F4;" d="M309.76,216.09c-10.001-4.877-16.874-8.966-20.12-10.996c-8.738-5.467-13.138-12.039-12.07-18.03
				c0.723-4.053,3.943-7.247,8.204-8.139c0.964-0.202,1.883-0.292,2.757-0.292c7.295,0,11.409,6.293,11.6,6.592l1.15,1.801
				l0.646-2.035c2.263-7.126,8.902-9.852,14.298-8.861c4.042,0.743,8.229,3.898,7.858,10.526
				C323.452,197.968,315.994,208.864,309.76,216.09z M319.975,220.827c-2.953-1.302-5.725-2.58-8.303-3.814
				c6.347-7.417,13.751-18.475,14.41-30.246c0.365-6.53-3.361-11.477-9.494-12.604c-5.653-1.038-12.833,1.635-15.914,8.51
				c-2.208-2.546-7.531-7.333-15.308-5.706c-5.065,1.06-8.897,4.885-9.764,9.746c-1.219,6.837,3.512,14.154,12.978,20.076
				c3.615,2.261,10.337,6.241,19.774,10.893c-3.109,3.443-5.723,5.834-6.724,6.72c-3.73-1.415-25.723-10.148-40.496-24.605
				c-11.531-11.283-15.824-23.924-11.779-34.68c3.302-8.781,11.842-14.594,22.287-15.17c0.767-0.042,1.512-0.063,2.236-0.063
				c15.411,0,21.377,9.15,21.633,9.556l1.001,1.6l0.762-1.727c0.374-0.845,9.412-20.656,32.698-16.625
				c8.287,1.435,14.636,6.115,17.876,13.178c4.604,10.035,2.445,23.816-5.925,37.811
				C337.368,201.298,330.246,211.288,319.975,220.827z M463.645,247.367c-60.772,3.209-110.758-12.295-141.757-25.705
				c8.356-7.784,15.697-16.83,21.754-26.958c8.713-14.568,10.909-29.028,6.026-39.671c-3.523-7.68-10.396-12.764-19.353-14.315
				c-21.028-3.644-31.37,11.461-34.11,16.326c-2.526-3.003-9.989-9.904-24.673-9.094c-11.248,0.621-20.463,6.929-24.049,16.463
				c-4.337,11.533,0.129,24.951,12.253,36.814c16.425,16.072,41.514,25.171,41.766,25.261l0.54,0.193l0.44-0.369
				c0.35-0.294,3.706-3.145,7.785-7.696c2.504,1.211,5.186,2.462,8.034,3.734c-13.965,12.482-33.441,23.92-59.77,27.889
				c-38.029,5.732-100.708-6.496-172.69-21.831c-66.732-14.218-100.515,2.06-114.94,9.011l0.393,0.921l0.476,0.881
				c14.241-6.862,47.592-22.931,113.655-8.857c59.723,12.723,113.068,23.311,151.433,23.311c8,0,15.352-0.461,21.971-1.458
				c23.043-3.473,44.242-13.648,61.38-29.022c7.716,3.382,16.6,6.89,26.532,10.203c38.034,12.688,77.402,18.061,117.008,15.966
				L463.645,247.367z"/>
			<path style="fill:#F1F1F1;" d="M310.171,215.68c-10.001-4.877-16.874-8.966-20.12-10.996c-8.738-5.467-13.138-12.039-12.07-18.03
				c0.723-4.053,3.943-7.247,8.204-8.139c0.964-0.202,1.883-0.292,2.757-0.292c7.295,0,11.409,6.293,11.6,6.592l1.15,1.801
				l0.646-2.035c2.263-7.126,8.902-9.852,14.298-8.861c4.042,0.743,8.229,3.898,7.858,10.526
				C323.863,197.557,316.405,208.454,310.171,215.68z M320.386,220.416c-2.953-1.302-5.725-2.58-8.303-3.813
				c6.347-7.417,13.751-18.476,14.41-30.246c0.365-6.53-3.361-11.477-9.494-12.604c-5.653-1.038-12.833,1.635-15.914,8.51
				c-2.208-2.546-7.531-7.333-15.308-5.706c-5.065,1.06-8.897,4.885-9.764,9.746c-1.219,6.837,3.512,14.154,12.978,20.076
				c3.615,2.261,10.337,6.241,19.774,10.893c-3.109,3.443-5.723,5.834-6.724,6.72c-3.73-1.415-25.723-10.148-40.496-24.605
				c-11.531-11.283-15.824-23.924-11.779-34.68c3.302-8.781,11.842-14.594,22.287-15.171c0.767-0.042,1.512-0.063,2.236-0.063
				c15.411,0,21.377,9.15,21.633,9.556l1.001,1.6l0.762-1.727c0.374-0.845,9.412-20.656,32.698-16.624
				c8.287,1.435,14.636,6.115,17.876,13.178c4.604,10.035,2.445,23.816-5.925,37.811
				C337.779,200.888,330.657,210.877,320.386,220.416z M464.056,246.956c-60.772,3.209-110.758-12.295-141.757-25.705
				c8.357-7.784,15.697-16.83,21.754-26.958c8.713-14.568,10.909-29.028,6.026-39.671c-3.523-7.68-10.396-12.764-19.352-14.315
				c-21.028-3.643-31.37,11.461-34.11,16.326c-2.526-3.003-9.989-9.904-24.673-9.094c-11.248,0.621-20.463,6.929-24.049,16.463
				c-4.337,11.533,0.129,24.951,12.253,36.814c16.425,16.072,41.514,25.171,41.766,25.261l0.54,0.193l0.44-0.369
				c0.35-0.293,3.706-3.145,7.785-7.696c2.504,1.211,5.186,2.462,8.034,3.734c-13.965,12.482-33.441,23.92-59.77,27.889
				c-38.029,5.732-100.708-6.496-172.69-21.831c-66.732-14.218-100.515,2.06-114.94,9.011l0.393,0.921l0.476,0.881
				c14.241-6.862,47.592-22.931,113.655-8.857c59.723,12.723,113.068,23.311,151.433,23.311c8,0,15.352-0.461,21.971-1.458
				c23.043-3.473,44.242-13.648,61.38-29.022c7.716,3.382,16.6,6.89,26.532,10.203c38.034,12.688,77.402,18.061,117.008,15.966
				L464.056,246.956z"/>
			<path style="fill:#EFEFEF;" d="M310.582,215.269c-10.001-4.877-16.874-8.966-20.12-10.996
				c-8.738-5.467-13.138-12.039-12.07-18.03c0.723-4.053,3.943-7.247,8.204-8.139c0.964-0.202,1.883-0.292,2.757-0.292
				c7.295,0,11.409,6.293,11.6,6.592l1.15,1.801l0.646-2.035c2.263-7.126,8.902-9.852,14.298-8.861
				c4.042,0.743,8.229,3.898,7.858,10.526C324.273,197.146,316.815,208.043,310.582,215.269z M320.796,220.005
				c-2.953-1.302-5.725-2.58-8.303-3.813c6.347-7.417,13.751-18.476,14.41-30.246c0.365-6.53-3.361-11.478-9.494-12.604
				c-5.653-1.038-12.833,1.635-15.914,8.51c-2.208-2.546-7.531-7.332-15.308-5.706c-5.065,1.059-8.897,4.885-9.764,9.746
				c-1.219,6.836,3.512,14.154,12.978,20.076c3.615,2.261,10.337,6.241,19.774,10.893c-3.109,3.443-5.723,5.834-6.724,6.72
				c-3.73-1.415-25.723-10.148-40.496-24.605c-11.531-11.283-15.824-23.924-11.779-34.68c3.302-8.781,11.842-14.594,22.287-15.17
				c0.767-0.043,1.512-0.063,2.236-0.063c15.411,0,21.377,9.15,21.633,9.556l1.001,1.6l0.762-1.727
				c0.374-0.845,9.412-20.656,32.698-16.625c8.287,1.435,14.636,6.115,17.876,13.178c4.605,10.035,2.445,23.816-5.925,37.811
				C338.19,200.477,331.068,210.467,320.796,220.005z M464.466,246.546c-60.772,3.209-110.758-12.295-141.757-25.705
				c8.357-7.784,15.697-16.83,21.754-26.958c8.713-14.568,10.909-29.028,6.026-39.671c-3.523-7.68-10.396-12.764-19.352-14.315
				c-21.028-3.643-31.37,11.461-34.11,16.326c-2.526-3.003-9.989-9.904-24.673-9.094c-11.248,0.621-20.463,6.929-24.049,16.463
				c-4.337,11.533,0.129,24.951,12.253,36.814c16.425,16.072,41.514,25.171,41.766,25.261l0.54,0.193l0.44-0.369
				c0.35-0.294,3.706-3.145,7.785-7.696c2.504,1.211,5.186,2.462,8.034,3.734c-13.965,12.482-33.441,23.92-59.77,27.889
				c-38.029,5.732-100.708-6.496-172.69-21.83c-66.732-14.218-100.515,2.059-114.94,9.011l0.393,0.921l0.476,0.881
				c14.241-6.862,47.592-22.931,113.655-8.857c59.723,12.723,113.068,23.311,151.433,23.311c8,0,15.352-0.461,21.971-1.458
				c23.043-3.473,44.242-13.648,61.38-29.022c7.716,3.382,16.6,6.89,26.532,10.203c38.034,12.688,77.402,18.061,117.008,15.966
				L464.466,246.546z"/>
			<path style="fill:#EDEDED;" d="M310.993,214.858c-10.001-4.877-16.874-8.966-20.12-10.996
				c-8.738-5.467-13.138-12.039-12.07-18.03c0.723-4.053,3.943-7.248,8.204-8.139c0.964-0.202,1.883-0.292,2.757-0.292
				c7.295,0,11.409,6.293,11.6,6.592l1.15,1.801l0.646-2.035c2.263-7.126,8.902-9.852,14.298-8.861
				c4.042,0.743,8.229,3.898,7.858,10.526C324.684,196.736,317.226,207.632,310.993,214.858z M321.207,219.594
				c-2.953-1.302-5.725-2.579-8.303-3.813c6.347-7.417,13.751-18.476,14.41-30.246c0.365-6.53-3.361-11.478-9.494-12.604
				c-5.653-1.038-12.833,1.635-15.914,8.51c-2.208-2.546-7.531-7.333-15.308-5.706c-5.065,1.059-8.897,4.885-9.764,9.746
				c-1.219,6.836,3.512,14.154,12.978,20.076c3.615,2.261,10.337,6.241,19.774,10.893c-3.109,3.443-5.723,5.834-6.724,6.72
				c-3.73-1.415-25.723-10.148-40.496-24.605c-11.531-11.283-15.824-23.924-11.779-34.68c3.302-8.781,11.842-14.594,22.287-15.17
				c0.767-0.042,1.512-0.063,2.236-0.063c15.411,0,21.378,9.15,21.633,9.556l1.001,1.6l0.762-1.726
				c0.374-0.845,9.412-20.656,32.698-16.625c8.287,1.435,14.636,6.115,17.876,13.178c4.604,10.035,2.445,23.816-5.925,37.811
				C338.6,200.066,331.479,210.056,321.207,219.594z M464.877,246.135c-60.772,3.209-110.758-12.295-141.757-25.705
				c8.357-7.784,15.697-16.83,21.754-26.957c8.713-14.568,10.909-29.028,6.026-39.671c-3.523-7.68-10.396-12.764-19.352-14.315
				c-21.028-3.643-31.37,11.461-34.11,16.326c-2.526-3.003-9.989-9.904-24.673-9.094c-11.248,0.621-20.463,6.929-24.049,16.463
				c-4.337,11.533,0.129,24.951,12.253,36.814c16.425,16.072,41.514,25.171,41.766,25.261l0.54,0.193l0.44-0.369
				c0.35-0.294,3.706-3.145,7.785-7.696c2.504,1.211,5.186,2.462,8.034,3.734c-13.965,12.482-33.441,23.92-59.77,27.889
				c-38.029,5.732-100.708-6.496-172.69-21.831c-66.732-14.218-100.515,2.06-114.94,9.011l0.393,0.921l0.476,0.881
				c14.241-6.862,47.592-22.931,113.655-8.857c59.723,12.723,113.068,23.311,151.433,23.311c8,0,15.352-0.461,21.971-1.458
				c23.043-3.473,44.242-13.648,61.38-29.022c7.716,3.382,16.6,6.89,26.532,10.203c38.034,12.688,77.402,18.061,117.008,15.966
				L464.877,246.135z"/>
			<path style="fill:#EAEAEA;" d="M311.404,214.447c-10.001-4.877-16.874-8.966-20.12-10.996
				c-8.738-5.467-13.138-12.038-12.07-18.03c0.723-4.053,3.943-7.247,8.204-8.139c0.964-0.202,1.883-0.292,2.757-0.292
				c7.295,0,11.409,6.293,11.6,6.592l1.15,1.801l0.646-2.035c2.263-7.126,8.902-9.852,14.298-8.861
				c4.042,0.743,8.229,3.898,7.858,10.526C325.095,196.325,317.637,207.221,311.404,214.447z M321.618,219.184
				c-2.953-1.302-5.725-2.58-8.303-3.813c6.347-7.417,13.752-18.476,14.41-30.246c0.365-6.53-3.361-11.478-9.494-12.604
				c-5.653-1.038-12.833,1.635-15.914,8.51c-2.208-2.546-7.531-7.333-15.308-5.706c-5.065,1.059-8.897,4.885-9.764,9.746
				c-1.219,6.836,3.512,14.154,12.978,20.076c3.615,2.261,10.337,6.241,19.774,10.893c-3.109,3.443-5.723,5.834-6.724,6.72
				c-3.73-1.415-25.723-10.148-40.496-24.605c-11.531-11.283-15.824-23.924-11.779-34.68c3.302-8.781,11.842-14.594,22.287-15.17
				c0.767-0.042,1.512-0.063,2.236-0.063c15.411,0,21.378,9.15,21.633,9.556l1.001,1.6l0.762-1.727
				c0.374-0.845,9.412-20.656,32.698-16.624c8.287,1.435,14.636,6.115,17.876,13.178c4.604,10.035,2.445,23.816-5.925,37.811
				C339.011,199.655,331.889,209.645,321.618,219.184z M465.288,245.724c-60.772,3.209-110.758-12.295-141.757-25.705
				c8.357-7.784,15.697-16.83,21.754-26.958c8.713-14.568,10.909-29.028,6.026-39.671c-3.523-7.68-10.397-12.764-19.353-14.315
				c-21.028-3.644-31.37,11.461-34.11,16.326c-2.526-3.003-9.989-9.904-24.673-9.094c-11.248,0.621-20.463,6.929-24.049,16.463
				c-4.337,11.533,0.129,24.951,12.253,36.814c16.425,16.072,41.514,25.171,41.766,25.261l0.541,0.193l0.439-0.369
				c0.35-0.294,3.706-3.145,7.785-7.696c2.504,1.211,5.186,2.462,8.034,3.734c-13.965,12.482-33.441,23.92-59.77,27.889
				c-38.029,5.732-100.708-6.496-172.689-21.831c-66.732-14.218-100.515,2.06-114.94,9.011l0.393,0.921l0.476,0.881
				c14.241-6.862,47.592-22.931,113.655-8.857c59.723,12.723,113.068,23.311,151.433,23.311c8,0,15.352-0.461,21.971-1.458
				c23.043-3.473,44.242-13.648,61.38-29.022c7.716,3.382,16.6,6.89,26.532,10.203c38.034,12.688,77.402,18.061,117.008,15.966
				L465.288,245.724z"/>
			<path style="fill:#E8E8E8;" d="M311.815,214.036c-10.001-4.877-16.874-8.966-20.12-10.996
				c-8.738-5.467-13.138-12.038-12.07-18.03c0.723-4.053,3.943-7.248,8.204-8.139c0.964-0.202,1.883-0.292,2.757-0.292
				c7.295,0,11.409,6.293,11.6,6.592l1.15,1.801l0.646-2.035c2.263-7.126,8.902-9.852,14.298-8.861
				c4.042,0.743,8.229,3.898,7.858,10.526C325.506,195.914,318.048,206.81,311.815,214.036z M322.029,218.773
				c-2.953-1.302-5.725-2.58-8.303-3.813c6.347-7.418,13.752-18.476,14.41-30.246c0.365-6.53-3.361-11.478-9.494-12.604
				c-5.653-1.038-12.833,1.635-15.914,8.51c-2.208-2.546-7.531-7.333-15.308-5.706c-5.065,1.06-8.897,4.885-9.764,9.746
				c-1.219,6.836,3.512,14.154,12.978,20.076c3.615,2.261,10.337,6.241,19.774,10.893c-3.109,3.443-5.723,5.834-6.724,6.72
				c-3.73-1.415-25.723-10.148-40.496-24.605c-11.531-11.283-15.824-23.924-11.779-34.68c3.302-8.781,11.842-14.594,22.287-15.17
				c0.767-0.042,1.512-0.063,2.236-0.063c15.411,0,21.378,9.15,21.633,9.556l1.001,1.6l0.762-1.727
				c0.374-0.845,9.412-20.656,32.698-16.624c8.287,1.435,14.636,6.115,17.876,13.178c4.604,10.035,2.445,23.816-5.925,37.811
				C339.422,199.244,332.3,209.234,322.029,218.773z M465.699,245.313c-60.772,3.209-110.758-12.295-141.757-25.705
				c8.357-7.784,15.697-16.83,21.754-26.958c8.713-14.568,10.909-29.028,6.026-39.671c-3.523-7.68-10.397-12.764-19.353-14.315
				c-21.028-3.644-31.37,11.461-34.11,16.326c-2.526-3.003-9.989-9.904-24.673-9.094c-11.248,0.621-20.463,6.929-24.049,16.463
				c-4.337,11.533,0.129,24.951,12.253,36.814c16.425,16.072,41.514,25.171,41.766,25.261l0.54,0.193l0.439-0.369
				c0.35-0.294,3.706-3.145,7.785-7.696c2.504,1.211,5.186,2.462,8.034,3.734c-13.965,12.482-33.441,23.92-59.77,27.889
				c-38.029,5.732-100.708-6.496-172.689-21.831c-66.732-14.218-100.515,2.06-114.94,9.011l0.392,0.921l0.476,0.881
				c14.241-6.862,47.592-22.931,113.655-8.857c59.723,12.723,113.068,23.311,151.433,23.311c8,0,15.352-0.461,21.971-1.458
				c23.043-3.473,44.242-13.648,61.38-29.022c7.716,3.382,16.6,6.89,26.532,10.203c38.034,12.688,77.402,18.061,117.008,15.966
				L465.699,245.313z"/>
			<path style="fill:#E6E6E6;" d="M312.225,213.626c-10.001-4.877-16.874-8.966-20.12-10.996
				c-8.738-5.467-13.138-12.038-12.07-18.03c0.723-4.053,3.943-7.248,8.204-8.139c0.964-0.202,1.883-0.292,2.757-0.292
				c7.295,0,11.409,6.293,11.6,6.592l1.15,1.801l0.646-2.035c2.263-7.126,8.902-9.852,14.298-8.861
				c4.042,0.743,8.229,3.898,7.858,10.526C325.917,195.503,318.459,206.4,312.225,213.626z M322.44,218.362
				c-2.953-1.302-5.725-2.58-8.303-3.814c6.347-7.417,13.751-18.476,14.41-30.246c0.365-6.53-3.361-11.478-9.494-12.604
				c-5.653-1.038-12.833,1.635-15.914,8.51c-2.208-2.546-7.531-7.333-15.308-5.706c-5.065,1.06-8.897,4.885-9.764,9.746
				c-1.219,6.836,3.512,14.154,12.978,20.076c3.615,2.261,10.337,6.241,19.774,10.893c-3.109,3.443-5.723,5.834-6.724,6.72
				c-3.73-1.415-25.723-10.148-40.496-24.605c-11.531-11.283-15.824-23.924-11.779-34.68c3.302-8.781,11.842-14.594,22.287-15.17
				c0.767-0.042,1.512-0.063,2.236-0.063c15.411,0,21.378,9.15,21.633,9.556l1.001,1.6l0.762-1.727
				c0.374-0.845,9.412-20.656,32.698-16.624c8.287,1.435,14.636,6.115,17.876,13.178c4.604,10.035,2.445,23.816-5.925,37.811
				C339.833,198.834,332.711,208.823,322.44,218.362z M466.109,244.902c-60.772,3.209-110.758-12.295-141.757-25.705
				c8.356-7.784,15.697-16.83,21.754-26.958c8.713-14.568,10.909-29.028,6.026-39.671c-3.523-7.68-10.397-12.764-19.353-14.315
				c-21.028-3.644-31.37,11.461-34.11,16.326c-2.526-3.003-9.989-9.904-24.673-9.094c-11.248,0.621-20.463,6.929-24.049,16.463
				c-4.337,11.533,0.129,24.951,12.253,36.814c16.425,16.072,41.514,25.171,41.766,25.261l0.54,0.193l0.439-0.369
				c0.35-0.293,3.706-3.145,7.785-7.696c2.504,1.211,5.186,2.462,8.034,3.734c-13.965,12.482-33.441,23.92-59.77,27.889
				c-38.029,5.732-100.708-6.496-172.689-21.831c-66.732-14.218-100.515,2.06-114.94,9.011l0.392,0.921l0.476,0.881
				c14.241-6.862,47.592-22.931,113.655-8.857c59.723,12.723,113.068,23.311,151.433,23.311c8,0,15.352-0.461,21.971-1.459
				c23.043-3.473,44.242-13.648,61.38-29.022c7.716,3.382,16.6,6.89,26.532,10.203c38.034,12.688,77.402,18.061,117.008,15.966
				L466.109,244.902z"/>
			<path style="fill:#E4E4E4;" d="M312.636,213.215c-10.001-4.877-16.874-8.966-20.12-10.996
				c-8.738-5.467-13.138-12.039-12.07-18.03c0.723-4.053,3.943-7.248,8.204-8.139c0.964-0.202,1.883-0.292,2.757-0.292
				c7.295,0,11.409,6.293,11.6,6.592l1.15,1.801l0.646-2.035c2.263-7.126,8.902-9.852,14.298-8.861
				c4.042,0.743,8.229,3.898,7.858,10.526C326.328,195.092,318.869,205.989,312.636,213.215z M322.85,217.951
				c-2.953-1.302-5.725-2.58-8.303-3.814c6.347-7.417,13.751-18.476,14.41-30.246c0.365-6.53-3.361-11.478-9.494-12.604
				c-5.653-1.038-12.834,1.635-15.914,8.51c-2.208-2.546-7.531-7.332-15.308-5.706c-5.065,1.06-8.897,4.885-9.764,9.746
				c-1.219,6.836,3.512,14.154,12.978,20.076c3.615,2.261,10.337,6.241,19.774,10.893c-3.109,3.443-5.723,5.834-6.724,6.72
				c-3.73-1.415-25.723-10.148-40.496-24.605c-11.531-11.283-15.824-23.924-11.779-34.68c3.302-8.781,11.842-14.594,22.287-15.17
				c0.767-0.043,1.512-0.063,2.236-0.063c15.411,0,21.377,9.15,21.633,9.556l1.001,1.6l0.762-1.727
				c0.373-0.845,9.412-20.656,32.698-16.624c8.287,1.435,14.636,6.115,17.876,13.178c4.604,10.035,2.445,23.816-5.925,37.811
				C340.243,198.423,333.122,208.413,322.85,217.951z M466.52,244.492c-60.772,3.209-110.758-12.295-141.757-25.705
				c8.356-7.784,15.697-16.83,21.754-26.958c8.713-14.568,10.909-29.028,6.026-39.671c-3.523-7.68-10.397-12.764-19.353-14.315
				c-21.028-3.644-31.37,11.461-34.11,16.326c-2.526-3.003-9.989-9.904-24.673-9.094c-11.248,0.621-20.463,6.929-24.049,16.463
				c-4.337,11.533,0.129,24.951,12.253,36.814c16.425,16.072,41.514,25.171,41.766,25.261l0.54,0.193l0.439-0.369
				c0.35-0.293,3.706-3.145,7.785-7.696c2.504,1.211,5.185,2.462,8.034,3.734c-13.965,12.482-33.441,23.92-59.77,27.889
				c-38.029,5.732-100.708-6.496-172.689-21.831c-66.732-14.218-100.515,2.06-114.94,9.011l0.392,0.921l0.476,0.881
				c14.241-6.862,47.592-22.931,113.655-8.857c59.723,12.723,113.068,23.311,151.433,23.31c8,0,15.352-0.461,21.971-1.458
				c23.042-3.473,44.242-13.648,61.38-29.022c7.716,3.382,16.6,6.89,26.532,10.203c38.034,12.688,77.402,18.061,117.008,15.966
				L466.52,244.492z"/>
			<path style="fill:#E1E1E1;" d="M313.047,212.804c-10.001-4.877-16.874-8.966-20.12-10.996
				c-8.738-5.467-13.138-12.039-12.07-18.03c0.723-4.053,3.943-7.248,8.204-8.139c0.964-0.202,1.883-0.292,2.757-0.292
				c7.295,0,11.409,6.293,11.6,6.592l1.15,1.801l0.647-2.035c2.263-7.126,8.902-9.852,14.298-8.861
				c4.042,0.743,8.229,3.898,7.858,10.526C326.738,194.682,319.28,205.578,313.047,212.804z M323.261,217.54
				c-2.953-1.302-5.725-2.58-8.303-3.814c6.347-7.417,13.751-18.476,14.41-30.246c0.365-6.53-3.361-11.477-9.494-12.604
				c-5.653-1.038-12.834,1.635-15.914,8.51c-2.208-2.546-7.531-7.333-15.308-5.706c-5.065,1.06-8.897,4.885-9.764,9.746
				c-1.219,6.836,3.512,14.154,12.978,20.076c3.615,2.261,10.337,6.241,19.774,10.893c-3.109,3.443-5.723,5.834-6.724,6.72
				c-3.73-1.415-25.723-10.148-40.496-24.605c-11.531-11.283-15.824-23.924-11.779-34.68c3.302-8.781,11.842-14.594,22.287-15.17
				c0.767-0.043,1.512-0.063,2.236-0.063c15.411,0,21.377,9.15,21.633,9.556l1.001,1.6l0.762-1.727
				c0.373-0.845,9.412-20.656,32.698-16.625c8.287,1.435,14.636,6.115,17.876,13.178c4.604,10.035,2.445,23.816-5.925,37.811
				C340.654,198.012,333.533,208.002,323.261,217.54z M466.931,244.081c-60.772,3.209-110.758-12.295-141.757-25.705
				c8.356-7.784,15.697-16.83,21.754-26.957c8.713-14.568,10.909-29.028,6.026-39.671c-3.523-7.68-10.397-12.764-19.353-14.315
				c-21.028-3.644-31.37,11.461-34.11,16.326c-2.526-3.003-9.989-9.904-24.673-9.094c-11.248,0.621-20.463,6.929-24.049,16.463
				c-4.337,11.533,0.129,24.951,12.253,36.814c16.425,16.072,41.514,25.171,41.766,25.261l0.541,0.193l0.439-0.369
				c0.35-0.293,3.706-3.145,7.785-7.696c2.504,1.211,5.185,2.462,8.034,3.734c-13.965,12.482-33.441,23.92-59.77,27.889
				c-38.029,5.732-100.708-6.496-172.689-21.831c-66.732-14.218-100.515,2.06-114.94,9.011l0.393,0.921l0.476,0.881
				c14.241-6.862,47.592-22.931,113.655-8.857c59.723,12.723,113.068,23.311,151.433,23.311c8,0,15.352-0.461,21.971-1.458
				c23.042-3.473,44.242-13.648,61.38-29.022c7.716,3.382,16.6,6.89,26.532,10.203c38.034,12.688,77.402,18.061,117.008,15.966
				L466.931,244.081z"/>
			<path style="fill:#DFDFDF;" d="M313.458,212.393c-10.001-4.877-16.874-8.966-20.12-10.996
				c-8.738-5.467-13.138-12.039-12.07-18.03c0.723-4.053,3.943-7.248,8.204-8.139c0.964-0.202,1.883-0.292,2.757-0.292
				c7.295,0,11.409,6.293,11.6,6.592l1.15,1.801l0.647-2.035c2.263-7.126,8.902-9.852,14.298-8.861
				c4.042,0.743,8.229,3.898,7.858,10.526C327.149,194.271,319.691,205.167,313.458,212.393z M323.672,217.13
				c-2.953-1.302-5.725-2.58-8.303-3.813c6.347-7.417,13.751-18.476,14.41-30.246c0.365-6.53-3.361-11.477-9.494-12.604
				c-5.653-1.038-12.833,1.635-15.914,8.51c-2.208-2.546-7.531-7.333-15.308-5.706c-5.065,1.06-8.897,4.885-9.764,9.746
				c-1.219,6.836,3.512,14.154,12.978,20.076c3.615,2.261,10.337,6.241,19.774,10.893c-3.109,3.443-5.723,5.834-6.724,6.72
				c-3.73-1.415-25.723-10.149-40.496-24.605c-11.531-11.283-15.824-23.924-11.779-34.68c3.302-8.781,11.842-14.594,22.287-15.17
				c0.767-0.042,1.512-0.063,2.236-0.063c15.411,0,21.377,9.15,21.633,9.556l1.001,1.6l0.762-1.727
				c0.374-0.845,9.412-20.656,32.698-16.624c8.287,1.435,14.636,6.115,17.876,13.178c4.604,10.035,2.445,23.816-5.925,37.811
				C341.065,197.601,333.944,207.591,323.672,217.13z M467.342,243.67c-60.772,3.209-110.758-12.295-141.757-25.705
				c8.356-7.784,15.697-16.83,21.754-26.957c8.713-14.568,10.909-29.028,6.026-39.671c-3.523-7.68-10.396-12.764-19.353-14.315
				c-21.028-3.644-31.37,11.461-34.11,16.326c-2.526-3.003-9.989-9.904-24.673-9.094c-11.248,0.621-20.463,6.929-24.049,16.463
				c-4.337,11.533,0.129,24.951,12.253,36.814c16.425,16.072,41.514,25.171,41.766,25.261l0.541,0.193l0.439-0.369
				c0.35-0.293,3.706-3.145,7.785-7.696c2.504,1.211,5.185,2.462,8.034,3.734c-13.965,12.482-33.441,23.92-59.77,27.889
				c-38.029,5.732-100.707-6.496-172.689-21.831c-66.733-14.218-100.515,2.06-114.941,9.011l0.393,0.921l0.476,0.881
				c14.241-6.862,47.592-22.931,113.655-8.857c59.723,12.723,113.068,23.311,151.433,23.311c8,0,15.352-0.461,21.971-1.458
				c23.042-3.473,44.242-13.648,61.38-29.022c7.716,3.382,16.6,6.89,26.532,10.203c38.034,12.688,77.402,18.061,117.008,15.966
				L467.342,243.67z"/>
			<path style="fill:#DDDDDD;" d="M313.868,211.982c-10.001-4.877-16.874-8.966-20.12-10.996
				c-8.738-5.467-13.138-12.039-12.07-18.03c0.723-4.053,3.943-7.248,8.204-8.139c0.964-0.202,1.883-0.292,2.757-0.292
				c7.295,0,11.409,6.293,11.6,6.592l1.15,1.801l0.647-2.035c2.263-7.126,8.902-9.852,14.298-8.861
				c4.042,0.743,8.229,3.898,7.858,10.526C327.56,193.86,320.102,204.756,313.868,211.982z M324.083,216.719
				c-2.953-1.302-5.725-2.58-8.303-3.813c6.347-7.418,13.751-18.476,14.41-30.246c0.365-6.53-3.361-11.477-9.494-12.604
				c-5.653-1.038-12.833,1.635-15.914,8.51c-2.208-2.546-7.531-7.332-15.308-5.706c-5.065,1.06-8.897,4.885-9.764,9.746
				c-1.219,6.837,3.512,14.154,12.978,20.076c3.615,2.261,10.337,6.241,19.775,10.893c-3.109,3.443-5.723,5.834-6.724,6.72
				c-3.73-1.415-25.723-10.148-40.496-24.605c-11.531-11.283-15.824-23.924-11.779-34.68c3.302-8.781,11.842-14.594,22.287-15.17
				c0.767-0.042,1.512-0.063,2.236-0.063c15.411,0,21.377,9.15,21.633,9.556l1.001,1.6l0.762-1.727
				c0.374-0.845,9.412-20.656,32.698-16.624c8.287,1.435,14.636,6.115,17.876,13.178c4.604,10.035,2.445,23.816-5.925,37.811
				C341.476,197.191,334.354,207.18,324.083,216.719z M467.753,243.259c-60.772,3.209-110.758-12.295-141.757-25.705
				c8.356-7.784,15.697-16.83,21.754-26.958c8.713-14.568,10.909-29.028,6.026-39.671c-3.523-7.68-10.396-12.764-19.353-14.315
				c-21.028-3.643-31.37,11.461-34.11,16.326c-2.526-3.003-9.989-9.904-24.673-9.094c-11.248,0.621-20.463,6.929-24.049,16.463
				c-4.337,11.533,0.129,24.951,12.253,36.814c16.425,16.072,41.514,25.171,41.766,25.261l0.541,0.193l0.439-0.369
				c0.35-0.293,3.706-3.145,7.785-7.696c2.504,1.211,5.185,2.462,8.034,3.734c-13.965,12.482-33.441,23.92-59.77,27.889
				c-38.029,5.732-100.707-6.496-172.689-21.831c-66.732-14.218-100.515,2.06-114.94,9.011l0.393,0.921l0.476,0.881
				c14.241-6.862,47.592-22.931,113.655-8.857c59.723,12.723,113.068,23.311,151.433,23.311c8,0,15.352-0.461,21.971-1.458
				c23.042-3.473,44.242-13.648,61.38-29.022c7.716,3.382,16.6,6.89,26.532,10.203c38.034,12.688,77.402,18.061,117.008,15.966
				L467.753,243.259z"/>
			<path style="fill:#DADADA;" d="M314.279,211.572c-10.001-4.877-16.874-8.966-20.12-10.996
				c-8.738-5.467-13.138-12.039-12.07-18.03c0.723-4.053,3.943-7.248,8.204-8.139c0.964-0.202,1.883-0.292,2.757-0.292
				c7.295,0,11.409,6.293,11.6,6.592l1.15,1.801l0.647-2.035c2.263-7.126,8.902-9.852,14.298-8.861
				c4.042,0.743,8.229,3.898,7.858,10.526C327.971,193.449,320.513,204.346,314.279,211.572z M324.494,216.308
				c-2.953-1.302-5.725-2.58-8.303-3.813c6.347-7.417,13.751-18.476,14.41-30.246c0.365-6.53-3.361-11.478-9.494-12.604
				c-5.653-1.038-12.833,1.635-15.914,8.51c-2.208-2.546-7.531-7.333-15.308-5.706c-5.065,1.06-8.897,4.885-9.764,9.746
				c-1.219,6.837,3.512,14.154,12.978,20.076c3.615,2.261,10.337,6.241,19.775,10.893c-3.109,3.443-5.723,5.834-6.724,6.72
				c-3.73-1.415-25.723-10.148-40.496-24.605c-11.531-11.283-15.824-23.924-11.779-34.68c3.302-8.781,11.842-14.594,22.287-15.17
				c0.767-0.042,1.512-0.063,2.236-0.063c15.411,0,21.377,9.15,21.633,9.556l1.001,1.6l0.762-1.727
				c0.374-0.845,9.412-20.656,32.698-16.624c8.287,1.435,14.636,6.115,17.876,13.178c4.605,10.035,2.445,23.816-5.925,37.811
				C341.887,196.78,334.765,206.769,324.494,216.308z M468.164,242.848c-60.772,3.209-110.758-12.295-141.757-25.705
				c8.356-7.784,15.697-16.83,21.754-26.958c8.713-14.568,10.909-29.028,6.026-39.671c-3.523-7.68-10.396-12.764-19.353-14.315
				c-21.028-3.643-31.37,11.461-34.11,16.326c-2.526-3.003-9.989-9.904-24.673-9.094c-11.248,0.621-20.463,6.929-24.049,16.463
				c-4.337,11.533,0.129,24.951,12.253,36.814c16.425,16.072,41.514,25.171,41.766,25.261l0.54,0.193l0.439-0.369
				c0.35-0.294,3.706-3.145,7.785-7.696c2.504,1.211,5.185,2.462,8.034,3.734c-13.965,12.482-33.441,23.92-59.77,27.889
				c-38.029,5.732-100.707-6.496-172.689-21.831c-66.732-14.218-100.515,2.06-114.94,9.011l0.393,0.921l0.476,0.881
				c14.241-6.862,47.592-22.931,113.655-8.857c59.723,12.723,113.068,23.311,151.433,23.311c8,0,15.352-0.461,21.971-1.459
				c23.042-3.473,44.242-13.648,61.38-29.022c7.716,3.382,16.6,6.89,26.532,10.203c38.034,12.688,77.402,18.061,117.008,15.966
				L468.164,242.848z"/>
			<path style="fill:#D8D8D8;" d="M314.69,211.161c-10.001-4.877-16.874-8.966-20.12-10.996c-8.738-5.467-13.138-12.039-12.07-18.03
				c0.723-4.053,3.943-7.247,8.204-8.139c0.964-0.202,1.883-0.292,2.757-0.292c7.295,0,11.409,6.293,11.6,6.592l1.15,1.801
				l0.647-2.035c2.263-7.126,8.902-9.852,14.298-8.861c4.042,0.743,8.229,3.898,7.858,10.526
				C328.381,193.038,320.923,203.935,314.69,211.161z M324.904,215.897c-2.953-1.302-5.725-2.58-8.303-3.814
				c6.347-7.417,13.751-18.475,14.41-30.246c0.365-6.53-3.361-11.478-9.494-12.604c-5.653-1.038-12.833,1.635-15.914,8.51
				c-2.208-2.546-7.531-7.333-15.308-5.706c-5.065,1.06-8.897,4.885-9.764,9.746c-1.219,6.837,3.512,14.154,12.978,20.076
				c3.615,2.261,10.337,6.241,19.774,10.893c-3.109,3.443-5.723,5.834-6.724,6.72c-3.73-1.415-25.723-10.148-40.496-24.605
				c-11.531-11.283-15.824-23.924-11.779-34.68c3.302-8.781,11.842-14.594,22.287-15.17c0.767-0.042,1.512-0.063,2.236-0.063
				c15.411,0,21.377,9.15,21.633,9.556l1.001,1.6l0.762-1.727c0.374-0.845,9.412-20.656,32.698-16.624
				c8.287,1.435,14.636,6.115,17.876,13.178c4.605,10.035,2.445,23.816-5.925,37.811
				C342.297,196.369,335.176,206.359,324.904,215.897z M468.574,242.438c-60.772,3.209-110.758-12.295-141.757-25.705
				c8.356-7.784,15.697-16.83,21.754-26.957c8.713-14.568,10.909-29.028,6.026-39.671c-3.523-7.68-10.396-12.764-19.353-14.315
				c-21.028-3.644-31.37,11.461-34.11,16.326c-2.526-3.003-9.989-9.904-24.673-9.094c-11.248,0.621-20.463,6.929-24.049,16.463
				c-4.337,11.533,0.129,24.951,12.253,36.814c16.425,16.072,41.514,25.171,41.766,25.261l0.54,0.193l0.44-0.369
				c0.35-0.294,3.706-3.145,7.785-7.696c2.504,1.211,5.186,2.462,8.034,3.734c-13.965,12.482-33.441,23.92-59.77,27.889
				c-38.029,5.732-100.707-6.496-172.689-21.831c-66.732-14.218-100.515,2.06-114.94,9.011l0.393,0.921l0.476,0.881
				c14.241-6.862,47.592-22.931,113.655-8.857c59.723,12.723,113.068,23.311,151.433,23.311c8,0,15.352-0.461,21.971-1.459
				c23.042-3.473,44.242-13.648,61.38-29.022c7.716,3.382,16.6,6.89,26.532,10.203c38.034,12.688,77.402,18.061,117.008,15.966
				L468.574,242.438z"/>
			<path style="fill:#D6D6D6;" d="M315.101,210.75c-10.001-4.877-16.874-8.966-20.12-10.996c-8.738-5.467-13.138-12.039-12.07-18.03
				c0.723-4.053,3.943-7.247,8.204-8.139c0.964-0.202,1.883-0.292,2.757-0.292c7.295,0,11.409,6.293,11.6,6.592l1.15,1.801
				l0.646-2.035c2.263-7.126,8.902-9.852,14.298-8.861c4.042,0.743,8.229,3.898,7.858,10.526
				C328.792,192.628,321.334,203.524,315.101,210.75z M325.315,215.486c-2.953-1.302-5.725-2.58-8.303-3.813
				c6.347-7.418,13.751-18.476,14.41-30.246c0.365-6.53-3.361-11.478-9.494-12.604c-5.653-1.038-12.833,1.635-15.914,8.51
				c-2.208-2.546-7.531-7.333-15.308-5.706c-5.065,1.06-8.897,4.885-9.764,9.746c-1.219,6.837,3.512,14.154,12.978,20.076
				c3.615,2.261,10.337,6.241,19.774,10.893c-3.109,3.443-5.723,5.834-6.724,6.72c-3.73-1.415-25.723-10.148-40.496-24.605
				c-11.531-11.283-15.824-23.924-11.779-34.68c3.302-8.781,11.842-14.594,22.287-15.17c0.767-0.042,1.512-0.063,2.236-0.063
				c15.411,0,21.377,9.15,21.633,9.556l1.001,1.6l0.762-1.727c0.374-0.845,9.412-20.656,32.698-16.625
				c8.287,1.435,14.636,6.115,17.876,13.178c4.604,10.035,2.445,23.816-5.925,37.811
				C342.708,195.958,335.587,205.948,325.315,215.486z M468.985,242.027c-60.772,3.209-110.758-12.295-141.757-25.705
				c8.356-7.784,15.697-16.83,21.754-26.958c8.713-14.568,10.909-29.028,6.026-39.671c-3.523-7.68-10.396-12.764-19.353-14.315
				c-21.028-3.644-31.37,11.461-34.11,16.326c-2.526-3.003-9.989-9.904-24.673-9.094c-11.248,0.621-20.463,6.929-24.049,16.463
				c-4.337,11.533,0.129,24.951,12.253,36.814c16.425,16.072,41.514,25.171,41.766,25.261l0.54,0.193l0.44-0.369
				c0.35-0.294,3.706-3.145,7.785-7.696c2.504,1.211,5.186,2.462,8.034,3.734c-13.965,12.482-33.441,23.921-59.77,27.889
				c-38.029,5.732-100.708-6.496-172.69-21.831c-66.732-14.218-100.515,2.059-114.94,9.011l0.393,0.921l0.476,0.881
				c14.241-6.862,47.592-22.931,113.655-8.857c59.723,12.723,113.068,23.311,151.433,23.311c8,0,15.352-0.461,21.971-1.458
				c23.042-3.473,44.242-13.648,61.38-29.022c7.716,3.382,16.6,6.89,26.532,10.203c38.034,12.688,77.402,18.061,117.008,15.966
				L468.985,242.027z"/>
			<path style="fill:#D3D3D3;" d="M315.512,210.339c-10.001-4.877-16.874-8.966-20.12-10.996
				c-8.738-5.467-13.138-12.039-12.07-18.03c0.723-4.053,3.943-7.247,8.204-8.139c0.964-0.202,1.883-0.292,2.757-0.292
				c7.295,0,11.409,6.293,11.6,6.592l1.15,1.801l0.646-2.035c2.263-7.126,8.902-9.852,14.298-8.861
				c4.042,0.743,8.229,3.898,7.858,10.526C329.203,192.217,321.745,203.113,315.512,210.339z M325.726,215.076
				c-2.953-1.302-5.725-2.58-8.303-3.813c6.347-7.418,13.751-18.476,14.41-30.246c0.365-6.53-3.361-11.478-9.494-12.604
				c-5.653-1.038-12.833,1.635-15.914,8.51c-2.208-2.546-7.531-7.333-15.308-5.706c-5.065,1.06-8.897,4.885-9.764,9.746
				c-1.219,6.836,3.512,14.154,12.978,20.076c3.615,2.261,10.337,6.241,19.774,10.893c-3.109,3.443-5.723,5.834-6.724,6.72
				c-3.73-1.415-25.723-10.148-40.496-24.605c-11.531-11.283-15.824-23.924-11.779-34.68c3.302-8.781,11.842-14.594,22.287-15.17
				c0.767-0.042,1.512-0.063,2.236-0.063c15.411,0,21.378,9.15,21.633,9.556l1.001,1.6l0.762-1.727
				c0.374-0.845,9.412-20.656,32.698-16.625c8.287,1.435,14.636,6.115,17.876,13.178c4.605,10.035,2.445,23.816-5.925,37.811
				C343.119,195.547,335.997,205.537,325.726,215.076z M469.396,241.616c-60.772,3.209-110.758-12.295-141.757-25.705
				c8.357-7.784,15.697-16.83,21.754-26.958c8.713-14.568,10.909-29.028,6.026-39.671c-3.523-7.68-10.396-12.764-19.352-14.315
				c-21.028-3.643-31.37,11.461-34.11,16.326c-2.526-3.003-9.989-9.904-24.673-9.094c-11.248,0.621-20.463,6.929-24.049,16.463
				c-4.337,11.533,0.129,24.951,12.253,36.814c16.425,16.072,41.514,25.171,41.766,25.261l0.54,0.193l0.44-0.369
				c0.35-0.293,3.706-3.145,7.785-7.696c2.504,1.211,5.186,2.462,8.034,3.734c-13.965,12.482-33.441,23.92-59.77,27.889
				c-38.029,5.732-100.708-6.496-172.69-21.83c-66.732-14.218-100.515,2.059-114.94,9.011l0.393,0.921l0.476,0.881
				c14.241-6.862,47.592-22.931,113.655-8.857c59.723,12.723,113.068,23.311,151.433,23.311c8,0,15.352-0.461,21.971-1.459
				c23.043-3.473,44.242-13.648,61.38-29.022c7.716,3.382,16.6,6.89,26.532,10.203c38.034,12.688,77.402,18.061,117.008,15.966
				L469.396,241.616z"/>
			<path style="fill:#D1D1D1;" d="M315.922,209.928c-10.001-4.877-16.874-8.966-20.12-10.996
				c-8.738-5.467-13.138-12.038-12.07-18.03c0.723-4.053,3.943-7.247,8.204-8.139c0.964-0.202,1.883-0.292,2.757-0.292
				c7.295,0,11.409,6.293,11.6,6.592l1.15,1.801l0.646-2.035c2.263-7.126,8.902-9.852,14.298-8.861
				c4.042,0.743,8.229,3.898,7.858,10.526C329.614,191.806,322.156,202.702,315.922,209.928z M326.137,214.665
				c-2.953-1.302-5.725-2.579-8.303-3.813c6.347-7.417,13.751-18.476,14.41-30.246c0.365-6.53-3.361-11.478-9.494-12.604
				c-5.653-1.038-12.833,1.635-15.914,8.51c-2.208-2.546-7.531-7.332-15.308-5.706c-5.065,1.059-8.897,4.885-9.764,9.746
				c-1.219,6.836,3.512,14.154,12.978,20.076c3.615,2.261,10.337,6.241,19.774,10.893c-3.109,3.443-5.723,5.834-6.724,6.72
				c-3.73-1.415-25.723-10.148-40.496-24.605c-11.531-11.283-15.824-23.924-11.779-34.68c3.302-8.781,11.842-14.594,22.287-15.17
				c0.767-0.043,1.512-0.063,2.236-0.063c15.411,0,21.378,9.15,21.633,9.556l1.001,1.6l0.762-1.727
				c0.374-0.845,9.412-20.656,32.698-16.624c8.287,1.435,14.636,6.115,17.876,13.178c4.605,10.035,2.445,23.816-5.925,37.811
				C343.53,195.137,336.408,205.126,326.137,214.665z M469.807,241.205c-60.772,3.209-110.758-12.295-141.757-25.705
				c8.357-7.784,15.697-16.83,21.754-26.958c8.713-14.568,10.909-29.028,6.026-39.671c-3.523-7.68-10.396-12.764-19.352-14.315
				c-21.028-3.643-31.37,11.461-34.11,16.326c-2.526-3.003-9.989-9.904-24.673-9.094c-11.248,0.621-20.463,6.929-24.049,16.463
				c-4.337,11.533,0.129,24.951,12.253,36.814c16.425,16.072,41.514,25.171,41.766,25.261l0.54,0.193l0.44-0.369
				c0.35-0.294,3.706-3.145,7.785-7.696c2.504,1.211,5.186,2.462,8.034,3.734c-13.965,12.482-33.441,23.92-59.77,27.889
				c-38.029,5.732-100.708-6.496-172.69-21.83c-66.732-14.218-100.515,2.059-114.94,9.011l0.393,0.921l0.476,0.881
				c14.241-6.862,47.592-22.931,113.655-8.857c59.723,12.723,113.068,23.311,151.433,23.311c8,0,15.352-0.461,21.971-1.459
				c23.043-3.473,44.242-13.648,61.38-29.022c7.716,3.382,16.6,6.89,26.532,10.203c38.034,12.688,77.402,18.061,117.008,15.966
				L469.807,241.205z"/>
			<path style="fill:#CFCFCF;" d="M316.333,209.518c-10.001-4.877-16.874-8.966-20.12-10.996
				c-8.738-5.467-13.138-12.039-12.07-18.03c0.723-4.053,3.943-7.248,8.204-8.139c0.964-0.202,1.883-0.292,2.757-0.292
				c7.295,0,11.409,6.293,11.6,6.592l1.15,1.801l0.646-2.035c2.263-7.126,8.902-9.852,14.298-8.861
				c4.042,0.743,8.229,3.898,7.858,10.526C330.025,191.395,322.567,202.292,316.333,209.518z M326.547,214.254
				c-2.953-1.302-5.725-2.58-8.303-3.814c6.347-7.417,13.751-18.476,14.41-30.246c0.365-6.53-3.361-11.478-9.494-12.604
				c-5.653-1.038-12.833,1.635-15.914,8.51c-2.208-2.546-7.531-7.332-15.308-5.706c-5.065,1.059-8.897,4.885-9.764,9.746
				c-1.219,6.836,3.512,14.154,12.978,20.076c3.615,2.261,10.337,6.241,19.774,10.893c-3.109,3.443-5.723,5.834-6.724,6.72
				c-3.73-1.415-25.723-10.148-40.496-24.605c-11.531-11.283-15.824-23.924-11.779-34.68c3.302-8.781,11.842-14.594,22.287-15.17
				c0.767-0.043,1.512-0.063,2.236-0.063c15.411,0,21.378,9.15,21.633,9.556l1.001,1.6l0.762-1.727
				c0.374-0.845,9.412-20.656,32.698-16.625c8.287,1.435,14.636,6.115,17.876,13.178c4.605,10.035,2.445,23.816-5.925,37.811
				C343.941,194.726,336.819,204.715,326.547,214.254z M470.217,240.795c-60.772,3.209-110.758-12.295-141.757-25.705
				c8.357-7.784,15.697-16.83,21.754-26.957c8.713-14.568,10.909-29.028,6.026-39.671c-3.523-7.68-10.396-12.764-19.352-14.315
				c-21.028-3.644-31.37,11.461-34.11,16.326c-2.526-3.003-9.989-9.904-24.673-9.094c-11.248,0.621-20.463,6.929-24.049,16.463
				c-4.337,11.533,0.129,24.951,12.253,36.814c16.425,16.072,41.514,25.171,41.766,25.261l0.54,0.193l0.44-0.369
				c0.35-0.294,3.706-3.145,7.785-7.696c2.504,1.211,5.186,2.462,8.034,3.734c-13.965,12.482-33.441,23.92-59.77,27.889
				c-38.029,5.732-100.708-6.496-172.69-21.831c-66.732-14.218-100.515,2.06-114.94,9.011l0.393,0.921l0.476,0.881
				c14.241-6.862,47.592-22.931,113.655-8.857c59.723,12.723,113.068,23.311,151.433,23.311c8,0,15.352-0.461,21.971-1.458
				c23.043-3.473,44.242-13.648,61.38-29.022c7.716,3.382,16.6,6.89,26.532,10.203c38.034,12.688,77.402,18.061,117.008,15.966
				L470.217,240.795z"/>
			<path style="fill:#CDCDCD;" d="M316.744,209.107c-10.001-4.877-16.874-8.966-20.12-10.996
				c-8.738-5.467-13.138-12.038-12.07-18.03c0.723-4.053,3.943-7.248,8.204-8.139c0.964-0.202,1.883-0.292,2.757-0.292
				c7.295,0,11.409,6.293,11.6,6.592l1.15,1.801l0.646-2.035c2.263-7.126,8.902-9.852,14.298-8.861
				c4.042,0.743,8.229,3.898,7.858,10.526C330.435,190.984,322.977,201.881,316.744,209.107z M326.958,213.843
				c-2.953-1.302-5.725-2.58-8.303-3.814c6.347-7.417,13.751-18.476,14.41-30.246c0.365-6.53-3.361-11.478-9.494-12.604
				c-5.653-1.038-12.833,1.635-15.914,8.51c-2.208-2.546-7.531-7.333-15.308-5.706c-5.065,1.059-8.897,4.885-9.764,9.746
				c-1.219,6.836,3.512,14.154,12.978,20.076c3.615,2.261,10.337,6.241,19.774,10.893c-3.109,3.443-5.723,5.834-6.724,6.72
				c-3.73-1.415-25.723-10.148-40.496-24.605c-11.531-11.283-15.824-23.924-11.779-34.68c3.302-8.781,11.842-14.594,22.287-15.17
				c0.767-0.042,1.512-0.063,2.236-0.063c15.411,0,21.378,9.15,21.633,9.556l1.001,1.6l0.762-1.727
				c0.374-0.845,9.412-20.656,32.698-16.624c8.287,1.435,14.636,6.115,17.876,13.178c4.604,10.035,2.445,23.816-5.925,37.811
				C344.351,194.315,337.23,204.305,326.958,213.843z M470.628,240.384c-60.772,3.209-110.758-12.295-141.757-25.705
				c8.357-7.784,15.697-16.83,21.754-26.957c8.713-14.568,10.909-29.028,6.026-39.671c-3.523-7.68-10.397-12.764-19.353-14.315
				c-21.028-3.644-31.37,11.461-34.11,16.326c-2.526-3.003-9.989-9.904-24.673-9.094c-11.248,0.621-20.463,6.929-24.049,16.463
				c-4.337,11.533,0.129,24.951,12.253,36.814c16.425,16.072,41.514,25.171,41.766,25.261l0.541,0.193l0.439-0.369
				c0.35-0.294,3.706-3.145,7.785-7.696c2.504,1.211,5.186,2.462,8.034,3.734c-13.965,12.482-33.441,23.92-59.77,27.889
				c-38.029,5.732-100.708-6.496-172.689-21.831c-66.732-14.218-100.515,2.06-114.94,9.011l0.392,0.921l0.476,0.881
				c14.241-6.862,47.592-22.931,113.655-8.857c59.723,12.723,113.068,23.311,151.433,23.311c8,0,15.352-0.461,21.971-1.458
				c23.043-3.473,44.242-13.648,61.38-29.022c7.716,3.382,16.6,6.89,26.532,10.203c38.034,12.688,77.402,18.061,117.008,15.966
				L470.628,240.384z"/>
			<path style="fill:#CACACA;" d="M317.155,208.696c-10.001-4.877-16.874-8.966-20.12-10.996
				c-8.738-5.467-13.138-12.039-12.07-18.03c0.723-4.053,3.943-7.248,8.204-8.139c0.964-0.202,1.883-0.292,2.757-0.292
				c7.295,0,11.409,6.293,11.6,6.592l1.15,1.801l0.646-2.035c2.263-7.126,8.902-9.852,14.298-8.861
				c4.042,0.743,8.229,3.898,7.858,10.526C330.846,190.574,323.388,201.47,317.155,208.696z M327.369,213.432
				c-2.953-1.302-5.725-2.58-8.303-3.813c6.347-7.417,13.752-18.476,14.41-30.246c0.365-6.53-3.361-11.477-9.494-12.604
				c-5.653-1.038-12.833,1.635-15.914,8.51c-2.208-2.546-7.531-7.333-15.308-5.706c-5.065,1.06-8.897,4.885-9.764,9.746
				c-1.219,6.836,3.512,14.154,12.978,20.076c3.615,2.261,10.337,6.241,19.774,10.893c-3.109,3.443-5.723,5.834-6.724,6.72
				c-3.73-1.415-25.723-10.148-40.496-24.605c-11.531-11.283-15.824-23.924-11.779-34.68c3.302-8.781,11.842-14.594,22.287-15.17
				c0.767-0.042,1.512-0.063,2.236-0.063c15.411,0,21.378,9.15,21.633,9.556l1.001,1.6l0.762-1.727
				c0.374-0.845,9.412-20.656,32.698-16.624c8.287,1.435,14.636,6.115,17.876,13.178c4.604,10.035,2.445,23.816-5.925,37.811
				C344.762,193.904,337.641,203.894,327.369,213.432z M471.039,239.973c-60.772,3.209-110.758-12.295-141.757-25.705
				c8.356-7.784,15.697-16.83,21.754-26.958c8.713-14.568,10.909-29.028,6.026-39.671c-3.523-7.68-10.397-12.764-19.353-14.315
				c-21.028-3.644-31.37,11.461-34.11,16.326c-2.526-3.003-9.989-9.904-24.673-9.094c-11.248,0.621-20.463,6.929-24.049,16.463
				c-4.337,11.533,0.129,24.951,12.253,36.814c16.425,16.072,41.514,25.171,41.766,25.261l0.54,0.193l0.439-0.369
				c0.35-0.293,3.706-3.145,7.785-7.696c2.504,1.211,5.186,2.462,8.034,3.734c-13.965,12.482-33.441,23.92-59.77,27.889
				c-38.029,5.732-100.708-6.496-172.689-21.831c-66.732-14.218-100.515,2.06-114.94,9.011l0.392,0.921l0.476,0.881
				c14.241-6.862,47.592-22.931,113.655-8.857c59.723,12.723,113.068,23.311,151.433,23.311c8,0,15.352-0.461,21.971-1.458
				c23.043-3.473,44.242-13.648,61.38-29.022c7.716,3.382,16.6,6.89,26.532,10.203c38.034,12.688,77.402,18.061,117.008,15.966
				L471.039,239.973z"/>
			<path style="fill:#C8C8C8;" d="M317.565,208.285c-10.001-4.877-16.874-8.966-20.12-10.996
				c-8.738-5.467-13.138-12.039-12.07-18.03c0.723-4.053,3.943-7.248,8.204-8.139c0.964-0.202,1.883-0.292,2.757-0.292
				c7.295,0,11.409,6.293,11.6,6.592l1.15,1.801l0.646-2.035c2.263-7.126,8.902-9.852,14.298-8.861
				c4.042,0.743,8.229,3.898,7.858,10.526C331.257,190.163,323.799,201.059,317.565,208.285z M327.78,213.022
				c-2.953-1.302-5.725-2.58-8.303-3.813c6.347-7.418,13.751-18.476,14.41-30.246c0.365-6.53-3.361-11.477-9.494-12.604
				c-5.653-1.038-12.833,1.635-15.914,8.51c-2.208-2.546-7.531-7.333-15.308-5.706c-5.065,1.06-8.897,4.885-9.764,9.746
				c-1.219,6.836,3.512,14.154,12.978,20.076c3.615,2.261,10.337,6.241,19.774,10.893c-3.109,3.443-5.723,5.834-6.724,6.72
				c-3.73-1.415-25.723-10.148-40.496-24.605c-11.531-11.283-15.824-23.924-11.779-34.68c3.302-8.781,11.842-14.594,22.287-15.17
				c0.767-0.042,1.512-0.063,2.236-0.063c15.411,0,21.377,9.15,21.633,9.556l1.001,1.6l0.762-1.727
				c0.374-0.845,9.412-20.656,32.698-16.624c8.287,1.435,14.636,6.115,17.876,13.178c4.604,10.035,2.445,23.816-5.925,37.811
				C345.173,193.493,338.051,203.483,327.78,213.022z M471.45,239.562c-60.772,3.209-110.758-12.295-141.757-25.705
				c8.356-7.784,15.697-16.83,21.754-26.958c8.713-14.568,10.909-29.028,6.026-39.671c-3.523-7.68-10.397-12.764-19.353-14.315
				c-21.028-3.644-31.37,11.461-34.11,16.326c-2.526-3.003-9.989-9.904-24.673-9.094c-11.248,0.621-20.463,6.929-24.049,16.463
				c-4.337,11.533,0.129,24.951,12.253,36.814c16.425,16.072,41.514,25.171,41.766,25.261l0.541,0.193l0.439-0.369
				c0.35-0.293,3.706-3.145,7.785-7.696c2.504,1.211,5.186,2.462,8.034,3.734c-13.965,12.482-33.441,23.92-59.77,27.889
				c-38.029,5.732-100.708-6.496-172.689-21.831c-66.732-14.218-100.515,2.06-114.94,9.011l0.393,0.921l0.476,0.881
				c14.241-6.862,47.592-22.931,113.655-8.857c59.723,12.723,113.068,23.311,151.433,23.311c8,0,15.352-0.461,21.971-1.459
				c23.043-3.473,44.242-13.648,61.38-29.022c7.716,3.382,16.6,6.89,26.532,10.203c38.034,12.688,77.402,18.061,117.008,15.966
				L471.45,239.562z"/>
			<path style="fill:#C6C6C6;" d="M317.976,207.875c-10.001-4.877-16.873-8.966-20.12-10.996
				c-8.738-5.467-13.138-12.039-12.07-18.03c0.723-4.053,3.943-7.248,8.204-8.139c0.964-0.202,1.883-0.292,2.757-0.292
				c7.295,0,11.409,6.293,11.6,6.592l1.15,1.801l0.646-2.035c2.263-7.126,8.902-9.852,14.298-8.861
				c4.042,0.743,8.229,3.898,7.858,10.526C331.668,189.752,324.21,200.648,317.976,207.875z M328.191,212.611
				c-2.953-1.302-5.725-2.58-8.303-3.814c6.347-7.417,13.751-18.476,14.41-30.246c0.365-6.53-3.361-11.478-9.494-12.604
				c-5.653-1.038-12.833,1.635-15.914,8.51c-2.208-2.546-7.531-7.333-15.308-5.706c-5.065,1.06-8.897,4.885-9.764,9.746
				c-1.219,6.836,3.512,14.154,12.978,20.076c3.615,2.261,10.337,6.241,19.774,10.893c-3.109,3.443-5.723,5.834-6.724,6.72
				c-3.73-1.415-25.723-10.148-40.496-24.605c-11.531-11.283-15.824-23.924-11.779-34.68c3.302-8.781,11.842-14.594,22.287-15.17
				c0.767-0.042,1.512-0.063,2.236-0.063c15.411,0,21.377,9.15,21.633,9.556l1.001,1.6l0.762-1.727
				c0.374-0.845,9.412-20.656,32.698-16.624c8.287,1.435,14.636,6.115,17.876,13.178c4.604,10.035,2.445,23.816-5.925,37.811
				C345.584,193.083,338.462,203.072,328.191,212.611z M471.861,239.151c-60.772,3.209-110.758-12.295-141.757-25.705
				c8.356-7.784,15.697-16.83,21.754-26.958c8.713-14.568,10.909-29.028,6.026-39.671c-3.523-7.68-10.397-12.764-19.353-14.315
				c-21.028-3.644-31.37,11.461-34.11,16.326c-2.526-3.003-9.989-9.904-24.673-9.094c-11.248,0.621-20.463,6.929-24.049,16.463
				c-4.337,11.533,0.129,24.951,12.253,36.814c16.425,16.072,41.514,25.171,41.766,25.261l0.541,0.193l0.439-0.369
				c0.35-0.293,3.706-3.145,7.785-7.696c2.504,1.211,5.186,2.462,8.034,3.734c-13.965,12.482-33.441,23.92-59.77,27.889
				c-38.029,5.732-100.708-6.496-172.689-21.831c-66.733-14.218-100.515,2.06-114.941,9.011l0.393,0.921l0.476,0.881
				c14.241-6.862,47.592-22.931,113.655-8.857c59.723,12.723,113.068,23.311,151.433,23.311c8,0,15.352-0.461,21.971-1.459
				c23.043-3.473,44.242-13.648,61.38-29.022c7.716,3.382,16.6,6.89,26.532,10.203c38.034,12.688,77.402,18.061,117.008,15.966
				L471.861,239.151z"/>
			<path style="fill:#C3C3C3;" d="M318.387,207.464c-10.001-4.877-16.873-8.966-20.12-10.996
				c-8.738-5.467-13.138-12.039-12.07-18.03c0.723-4.053,3.943-7.248,8.204-8.139c0.964-0.202,1.883-0.292,2.757-0.292
				c7.295,0,11.409,6.293,11.6,6.592l1.15,1.801l0.647-2.035c2.263-7.126,8.902-9.852,14.298-8.861
				c4.042,0.743,8.229,3.898,7.858,10.526C332.078,189.341,324.621,200.238,318.387,207.464z M328.602,212.2
				c-2.953-1.302-5.725-2.58-8.303-3.814c6.347-7.417,13.751-18.476,14.41-30.246c0.365-6.53-3.361-11.478-9.494-12.604
				c-5.653-1.038-12.834,1.635-15.914,8.51c-2.208-2.546-7.531-7.333-15.308-5.706c-5.065,1.06-8.897,4.885-9.764,9.746
				c-1.219,6.836,3.512,14.154,12.978,20.076c3.615,2.261,10.337,6.241,19.774,10.893c-3.109,3.443-5.723,5.834-6.724,6.72
				c-3.73-1.415-25.723-10.148-40.496-24.605c-11.531-11.283-15.824-23.924-11.779-34.68c3.302-8.781,11.842-14.594,22.287-15.17
				c0.767-0.043,1.512-0.063,2.236-0.063c15.411,0,21.377,9.15,21.633,9.556l1.001,1.6l0.762-1.727
				c0.373-0.845,9.412-20.656,32.698-16.625c8.287,1.435,14.636,6.115,17.876,13.178c4.604,10.035,2.445,23.816-5.925,37.811
				C345.995,192.672,338.873,202.661,328.602,212.2z M472.271,238.741c-60.772,3.209-110.758-12.295-141.757-25.705
				c8.356-7.784,15.697-16.83,21.754-26.958c8.713-14.568,10.909-29.028,6.026-39.671c-3.523-7.68-10.397-12.764-19.353-14.315
				c-21.028-3.644-31.37,11.461-34.11,16.326c-2.526-3.003-9.989-9.904-24.673-9.094c-11.248,0.621-20.463,6.929-24.049,16.463
				c-4.337,11.533,0.129,24.951,12.253,36.814c16.425,16.072,41.514,25.171,41.766,25.261l0.541,0.193l0.439-0.369
				c0.35-0.293,3.706-3.145,7.785-7.696c2.504,1.211,5.185,2.462,8.034,3.734c-13.965,12.482-33.441,23.92-59.77,27.889
				c-38.029,5.732-100.708-6.496-172.689-21.831c-66.732-14.218-100.515,2.06-114.94,9.011l0.393,0.921l0.476,0.881
				c14.241-6.862,47.592-22.931,113.655-8.857c59.723,12.723,113.068,23.311,151.433,23.311c8,0,15.352-0.461,21.971-1.458
				c23.042-3.473,44.242-13.648,61.38-29.022c7.716,3.382,16.6,6.89,26.532,10.203c38.034,12.688,77.402,18.061,117.008,15.966
				L472.271,238.741z"/>
			<path style="fill:#C1C1C1;" d="M318.798,207.053c-10.001-4.877-16.874-8.966-20.12-10.996
				c-8.738-5.467-13.138-12.039-12.07-18.03c0.723-4.053,3.943-7.248,8.204-8.139c0.964-0.202,1.883-0.292,2.757-0.292
				c7.295,0,11.409,6.293,11.6,6.592l1.15,1.801l0.647-2.035c2.263-7.126,8.902-9.852,14.298-8.861
				c4.042,0.743,8.229,3.898,7.858,10.526C332.489,188.93,325.031,199.827,318.798,207.053z M329.012,211.789
				c-2.953-1.302-5.725-2.58-8.303-3.814c6.347-7.417,13.751-18.476,14.41-30.246c0.365-6.53-3.361-11.477-9.494-12.604
				c-5.653-1.038-12.833,1.635-15.914,8.51c-2.208-2.546-7.531-7.333-15.308-5.706c-5.065,1.06-8.897,4.885-9.764,9.746
				c-1.219,6.837,3.512,14.154,12.978,20.076c3.615,2.261,10.337,6.241,19.775,10.893c-3.109,3.443-5.723,5.834-6.724,6.72
				c-3.73-1.415-25.723-10.148-40.496-24.605c-11.531-11.283-15.824-23.924-11.779-34.68c3.302-8.781,11.842-14.594,22.287-15.17
				c0.767-0.042,1.512-0.063,2.236-0.063c15.411,0,21.377,9.15,21.633,9.556l1.001,1.6l0.762-1.727
				c0.374-0.845,9.412-20.656,32.698-16.624c8.287,1.435,14.636,6.115,17.876,13.178c4.604,10.035,2.445,23.816-5.925,37.811
				C346.405,192.261,339.284,202.251,329.012,211.789z M472.682,238.33c-60.772,3.209-110.758-12.295-141.757-25.705
				c8.356-7.784,15.697-16.83,21.754-26.958c8.713-14.568,10.909-29.028,6.026-39.671c-3.523-7.68-10.396-12.764-19.353-14.315
				c-21.028-3.643-31.37,11.461-34.11,16.326c-2.526-3.003-9.989-9.904-24.673-9.094c-11.248,0.621-20.463,6.929-24.049,16.463
				c-4.337,11.533,0.129,24.951,12.253,36.814c16.425,16.072,41.514,25.171,41.766,25.261l0.54,0.193l0.439-0.369
				c0.35-0.293,3.706-3.145,7.785-7.696c2.504,1.211,5.185,2.462,8.034,3.734c-13.965,12.482-33.441,23.92-59.77,27.889
				c-38.029,5.732-100.708-6.496-172.689-21.831c-66.732-14.218-100.515,2.06-114.94,9.011l0.393,0.921l0.476,0.881
				c14.241-6.862,47.592-22.931,113.655-8.857c59.723,12.723,113.068,23.311,151.433,23.311c8,0,15.352-0.461,21.971-1.458
				c23.042-3.473,44.242-13.648,61.38-29.022c7.716,3.382,16.6,6.89,26.532,10.203c38.034,12.688,77.402,18.061,117.008,15.966
				L472.682,238.33z"/>
			<path style="fill:#BFBFBF;" d="M319.209,206.642c-10.001-4.877-16.874-8.966-20.12-10.996
				c-8.738-5.467-13.138-12.039-12.07-18.03c0.723-4.053,3.943-7.247,8.204-8.139c0.964-0.202,1.883-0.292,2.757-0.292
				c7.295,0,11.409,6.293,11.6,6.592l1.15,1.801l0.647-2.035c2.263-7.126,8.902-9.852,14.298-8.861
				c4.042,0.743,8.229,3.898,7.858,10.526C332.9,188.52,325.442,199.416,319.209,206.642z M329.423,211.378
				c-2.953-1.302-5.725-2.58-8.303-3.813c6.347-7.417,13.751-18.476,14.41-30.246c0.365-6.53-3.361-11.477-9.494-12.604
				c-5.653-1.038-12.833,1.635-15.914,8.51c-2.208-2.546-7.531-7.332-15.308-5.706c-5.065,1.06-8.897,4.885-9.764,9.746
				c-1.219,6.837,3.512,14.154,12.978,20.076c3.615,2.261,10.337,6.241,19.775,10.893c-3.109,3.443-5.723,5.834-6.724,6.72
				c-3.73-1.415-25.723-10.148-40.496-24.605c-11.531-11.283-15.824-23.924-11.779-34.68c3.302-8.781,11.842-14.594,22.287-15.17
				c0.767-0.042,1.512-0.063,2.236-0.063c15.411,0,21.377,9.15,21.633,9.556l1.001,1.6l0.762-1.727
				c0.374-0.845,9.412-20.656,32.698-16.624c8.287,1.435,14.636,6.115,17.876,13.178c4.604,10.035,2.445,23.816-5.925,37.811
				C346.816,191.85,339.695,201.84,329.423,211.378z M473.093,237.919c-60.772,3.209-110.758-12.295-141.757-25.705
				c8.356-7.784,15.697-16.83,21.754-26.958c8.713-14.568,10.909-29.028,6.026-39.671c-3.523-7.68-10.396-12.764-19.353-14.315
				c-21.028-3.643-31.37,11.461-34.11,16.326c-2.526-3.003-9.989-9.904-24.673-9.094c-11.248,0.621-20.463,6.929-24.049,16.463
				c-4.337,11.533,0.129,24.951,12.253,36.814c16.425,16.072,41.514,25.171,41.766,25.261l0.54,0.193l0.439-0.369
				c0.35-0.293,3.706-3.145,7.785-7.696c2.504,1.211,5.186,2.462,8.034,3.734c-13.965,12.482-33.441,23.92-59.77,27.889
				c-38.029,5.732-100.707-6.496-172.689-21.831c-66.732-14.218-100.515,2.06-114.94,9.011l0.393,0.921l0.476,0.881
				c14.241-6.862,47.592-22.931,113.655-8.857c59.723,12.723,113.068,23.311,151.433,23.311c8,0,15.352-0.461,21.971-1.458
				c23.042-3.473,44.242-13.648,61.38-29.022c7.716,3.382,16.6,6.89,26.532,10.203c38.034,12.688,77.402,18.061,117.008,15.966
				L473.093,237.919z"/>
			<path style="fill:#BDBDBD;" d="M319.62,206.231c-10.001-4.877-16.874-8.966-20.12-10.996c-8.738-5.467-13.138-12.039-12.07-18.03
				c0.723-4.053,3.943-7.248,8.204-8.139c0.964-0.202,1.883-0.292,2.757-0.292c7.295,0,11.409,6.293,11.6,6.592l1.15,1.801
				l0.647-2.035c2.263-7.126,8.902-9.852,14.298-8.861c4.042,0.743,8.229,3.898,7.858,10.526
				C333.311,188.109,325.853,199.005,319.62,206.231z M329.834,210.968c-2.953-1.302-5.725-2.58-8.303-3.813
				c6.347-7.417,13.751-18.476,14.41-30.246c0.365-6.53-3.361-11.477-9.494-12.604c-5.653-1.038-12.834,1.635-15.914,8.51
				c-2.208-2.546-7.531-7.332-15.308-5.706c-5.065,1.06-8.897,4.885-9.764,9.746c-1.219,6.837,3.512,14.154,12.978,20.076
				c3.615,2.261,10.337,6.241,19.774,10.893c-3.109,3.443-5.723,5.834-6.724,6.72c-3.73-1.415-25.723-10.148-40.496-24.605
				c-11.531-11.283-15.824-23.924-11.779-34.68c3.302-8.781,11.842-14.594,22.287-15.171c0.767-0.042,1.512-0.063,2.236-0.063
				c15.411,0,21.377,9.15,21.633,9.556l1.001,1.6l0.762-1.727c0.374-0.845,9.412-20.656,32.698-16.624
				c8.287,1.435,14.636,6.115,17.876,13.178c4.604,10.035,2.445,23.816-5.925,37.811
				C347.227,191.439,340.105,201.429,329.834,210.968z M473.504,237.508c-60.772,3.209-110.758-12.295-141.757-25.705
				c8.357-7.784,15.697-16.83,21.754-26.958c8.713-14.568,10.909-29.028,6.026-39.671c-3.523-7.68-10.397-12.764-19.353-14.315
				c-21.028-3.644-31.37,11.461-34.11,16.326c-2.526-3.003-9.989-9.904-24.673-9.094c-11.248,0.621-20.463,6.929-24.049,16.463
				c-4.337,11.533,0.129,24.951,12.253,36.814c16.425,16.072,41.514,25.171,41.766,25.261l0.54,0.193l0.439-0.369
				c0.35-0.294,3.706-3.145,7.785-7.696c2.504,1.211,5.186,2.462,8.034,3.734c-13.965,12.482-33.441,23.92-59.77,27.889
				c-38.029,5.732-100.707-6.496-172.689-21.831c-66.732-14.218-100.515,2.06-114.94,9.011l0.393,0.921l0.476,0.881
				c14.241-6.862,47.592-22.931,113.655-8.857c59.723,12.723,113.068,23.311,151.433,23.311c8,0,15.352-0.461,21.971-1.458
				c23.042-3.473,44.242-13.648,61.38-29.022c7.716,3.382,16.6,6.89,26.532,10.203c38.034,12.688,77.402,18.061,117.008,15.966
				L473.504,237.508z"/>
			<path style="fill:#BABABA;" d="M320.03,205.821c-10.001-4.877-16.874-8.966-20.12-10.996c-8.738-5.467-13.138-12.039-12.07-18.03
				c0.723-4.053,3.943-7.247,8.204-8.139c0.964-0.202,1.883-0.292,2.757-0.292c7.295,0,11.409,6.293,11.6,6.592l1.15,1.801
				l0.647-2.035c2.263-7.126,8.902-9.852,14.298-8.861c4.042,0.743,8.229,3.898,7.858,10.526
				C333.722,187.698,326.264,198.594,320.03,205.821z M330.245,210.557c-2.953-1.302-5.725-2.58-8.303-3.813
				c6.347-7.417,13.751-18.476,14.41-30.246c0.365-6.53-3.361-11.478-9.494-12.604c-5.653-1.038-12.833,1.635-15.914,8.51
				c-2.208-2.546-7.531-7.333-15.308-5.706c-5.065,1.06-8.897,4.885-9.764,9.746c-1.219,6.836,3.512,14.154,12.978,20.076
				c3.615,2.261,10.337,6.241,19.774,10.893c-3.109,3.443-5.723,5.834-6.724,6.72c-3.73-1.415-25.723-10.148-40.496-24.605
				c-11.531-11.283-15.824-23.924-11.779-34.68c3.302-8.781,11.842-14.594,22.287-15.17c0.767-0.042,1.512-0.063,2.236-0.063
				c15.411,0,21.378,9.15,21.633,9.556l1.001,1.6l0.762-1.727c0.374-0.845,9.412-20.656,32.698-16.625
				c8.287,1.435,14.636,6.115,17.876,13.178c4.604,10.035,2.445,23.816-5.925,37.811
				C347.638,191.029,340.516,201.018,330.245,210.557z M473.915,237.098c-60.772,3.209-110.758-12.295-141.757-25.705
				c8.356-7.784,15.697-16.83,21.754-26.957c8.713-14.568,10.909-29.028,6.026-39.671c-3.523-7.68-10.397-12.764-19.353-14.315
				c-21.028-3.644-31.37,11.461-34.11,16.326c-2.526-3.003-9.989-9.904-24.673-9.094c-11.248,0.621-20.463,6.929-24.049,16.463
				c-4.337,11.533,0.129,24.951,12.253,36.814c16.425,16.072,41.514,25.171,41.766,25.261l0.54,0.193l0.44-0.369
				c0.35-0.294,3.706-3.145,7.785-7.696c2.504,1.211,5.186,2.462,8.034,3.734c-13.965,12.482-33.441,23.921-59.77,27.889
				c-38.029,5.732-100.707-6.496-172.689-21.831c-66.732-14.218-100.515,2.06-114.94,9.011l0.393,0.921l0.476,0.881
				c14.241-6.862,47.592-22.931,113.655-8.857c59.723,12.723,113.068,23.311,151.433,23.311c8,0,15.352-0.461,21.971-1.458
				c23.042-3.473,44.242-13.648,61.38-29.022c7.716,3.382,16.6,6.89,26.532,10.203c38.034,12.688,77.402,18.061,117.008,15.966
				L473.915,237.098z"/>
			<path style="fill:#B8B8B8;" d="M320.441,205.41c-10.001-4.877-16.874-8.966-20.12-10.996c-8.738-5.467-13.138-12.039-12.07-18.03
				c0.723-4.053,3.943-7.247,8.204-8.139c0.964-0.202,1.883-0.292,2.757-0.292c7.295,0,11.409,6.293,11.6,6.592l1.15,1.801
				l0.647-2.035c2.263-7.126,8.902-9.852,14.298-8.861c4.042,0.743,8.229,3.898,7.858,10.526
				C334.133,187.287,326.674,198.184,320.441,205.41z M330.655,210.146c-2.953-1.302-5.725-2.579-8.303-3.813
				c6.347-7.417,13.751-18.476,14.41-30.246c0.365-6.53-3.361-11.478-9.494-12.604c-5.653-1.038-12.833,1.635-15.914,8.51
				c-2.208-2.546-7.531-7.333-15.308-5.706c-5.065,1.06-8.897,4.885-9.764,9.746c-1.219,6.836,3.512,14.154,12.978,20.076
				c3.615,2.261,10.337,6.241,19.774,10.893c-3.109,3.443-5.723,5.834-6.724,6.72c-3.73-1.415-25.723-10.148-40.496-24.605
				c-11.531-11.283-15.824-23.924-11.779-34.68c3.302-8.781,11.842-14.594,22.287-15.17c0.767-0.042,1.512-0.063,2.236-0.063
				c15.411,0,21.378,9.15,21.633,9.556l1.001,1.6l0.762-1.727c0.374-0.845,9.412-20.656,32.698-16.625
				c8.287,1.435,14.636,6.115,17.876,13.178c4.604,10.035,2.445,23.816-5.925,37.811
				C348.048,190.618,340.927,200.608,330.655,210.146z M474.325,236.687c-60.772,3.209-110.758-12.295-141.757-25.705
				c8.356-7.784,15.697-16.83,21.754-26.958c8.713-14.568,10.909-29.028,6.026-39.671c-3.523-7.68-10.396-12.764-19.353-14.315
				c-21.028-3.644-31.37,11.461-34.11,16.326c-2.526-3.003-9.989-9.904-24.673-9.094c-11.248,0.621-20.463,6.929-24.049,16.463
				c-4.337,11.533,0.129,24.951,12.253,36.814c16.425,16.072,41.514,25.171,41.766,25.261l0.54,0.193l0.44-0.369
				c0.35-0.294,3.706-3.145,7.785-7.696c2.504,1.211,5.186,2.462,8.034,3.734c-13.965,12.482-33.441,23.92-59.77,27.889
				c-38.029,5.732-100.707-6.496-172.689-21.831c-66.732-14.218-100.515,2.059-114.94,9.011l0.393,0.921l0.476,0.881
				c14.241-6.862,47.592-22.931,113.655-8.857c59.723,12.723,113.068,23.311,151.433,23.311c8,0,15.352-0.461,21.971-1.458
				c23.042-3.473,44.242-13.648,61.38-29.022c7.716,3.382,16.6,6.89,26.532,10.203c38.034,12.688,77.402,18.061,117.008,15.966
				L474.325,236.687z"/>
		</g>
		<path style="clip-path:url(#SVGID_00000065788985875347253930000010203010997512471485_);fill:#FF1C1F;" d="M474.325,236.687
			c-60.772,3.209-110.758-12.295-141.757-25.705c8.356-7.784,15.697-16.83,21.754-26.958c8.713-14.568,10.909-29.028,6.026-39.671
			c-3.523-7.68-10.396-12.764-19.353-14.315c-21.028-3.644-31.37,11.461-34.11,16.326c-2.526-3.003-9.989-9.904-24.673-9.094
			c-11.248,0.621-20.463,6.929-24.049,16.463c-4.337,11.533,0.129,24.951,12.253,36.814c16.425,16.072,41.514,25.171,41.766,25.261
			l0.54,0.193l0.44-0.369c0.35-0.294,3.706-3.145,7.785-7.696c2.504,1.211,5.186,2.462,8.034,3.734
			c-13.965,12.482-33.441,23.92-59.77,27.889c-38.029,5.732-100.707-6.496-172.689-21.831
			c-66.732-14.218-100.515,2.059-114.94,9.011l0.393,0.921l0.476,0.881c14.241-6.862,47.592-22.931,113.655-8.857
			c59.723,12.723,113.068,23.311,151.433,23.311c8,0,15.352-0.461,21.971-1.458c23.042-3.473,44.242-13.648,61.38-29.022
			c7.716,3.382,16.6,6.89,26.532,10.203c38.034,12.688,77.402,18.061,117.008,15.966L474.325,236.687z M320.441,205.41
			c-10.001-4.877-16.874-8.966-20.12-10.996c-8.738-5.467-13.138-12.039-12.07-18.03c0.723-4.053,3.943-7.247,8.204-8.139
			c0.964-0.202,1.883-0.292,2.757-0.292c7.295,0,11.409,6.293,11.6,6.592l1.15,1.801l0.647-2.035
			c2.263-7.126,8.902-9.852,14.298-8.861c4.042,0.743,8.229,3.898,7.858,10.526C334.133,187.287,326.674,198.184,320.441,205.41z
			 M330.655,210.146c-2.953-1.302-5.725-2.579-8.303-3.813c6.347-7.417,13.751-18.476,14.41-30.246
			c0.365-6.53-3.361-11.478-9.494-12.604c-5.653-1.038-12.833,1.635-15.914,8.51c-2.208-2.546-7.531-7.333-15.308-5.706
			c-5.065,1.06-8.897,4.885-9.764,9.746c-1.219,6.836,3.512,14.154,12.978,20.076c3.615,2.261,10.337,6.241,19.774,10.893
			c-3.109,3.443-5.723,5.834-6.724,6.72c-3.73-1.415-25.723-10.148-40.496-24.605c-11.531-11.283-15.824-23.924-11.779-34.68
			c3.302-8.781,11.842-14.594,22.287-15.17c0.767-0.042,1.512-0.063,2.236-0.063c15.411,0,21.378,9.15,21.633,9.556l1.001,1.6
			l0.762-1.727c0.374-0.845,9.412-20.656,32.698-16.625c8.287,1.435,14.636,6.115,17.876,13.178
			c4.604,10.035,2.445,23.816-5.925,37.811C348.048,190.618,340.927,200.608,330.655,210.146z"/>
	</g>
	<g>
		<path style="fill:#FF1C1F;" d="M246.584,193.954c-2.302,0.46-2.675,0.833-3.135,3.135c-0.46-2.302-0.833-2.675-3.135-3.135
			c2.302-0.46,2.675-0.833,3.135-3.135C243.909,193.121,244.282,193.494,246.584,193.954z"/>
		<path style="fill:#FF1C1F;" d="M253.31,134.504c-4.604,0.921-5.35,1.667-6.27,6.27c-0.921-4.604-1.667-5.35-6.27-6.27
			c4.604-0.921,5.35-1.667,6.27-6.27C247.96,132.837,248.706,133.583,253.31,134.504z"/>
		<path style="fill:#FF1C1F;" d="M296.215,118.63c-1.973,0.395-2.293,0.714-2.687,2.687c-0.395-1.973-0.714-2.293-2.687-2.687
			c1.973-0.395,2.293-0.714,2.687-2.687C293.922,117.916,294.242,118.235,296.215,118.63z"/>
		<path style="fill:#FF1C1F;" d="M333.198,64.772c-5.261,1.052-6.114,1.905-7.166,7.166c-1.052-5.261-1.905-6.114-7.166-7.166
			c5.261-1.052,6.114-1.905,7.166-7.166C327.083,62.867,327.936,63.72,333.198,64.772z"/>
		<path style="fill:#FF1C1F;" d="M360.249,99.935c-5.559,1.112-6.461,2.013-7.572,7.572c-1.112-5.559-2.013-6.461-7.572-7.572
			c5.559-1.112,6.461-2.013,7.572-7.572C353.789,97.922,354.69,98.823,360.249,99.935z"/>
		<path style="fill:#FF1C1F;" d="M385.502,165.118c-3.288,0.658-3.821,1.191-4.479,4.479c-0.658-3.288-1.191-3.821-4.479-4.479
			c3.288-0.658,3.821-1.191,4.479-4.479C381.681,163.928,382.214,164.461,385.502,165.118z"/>
		<path style="fill:#FF1C1F;" d="M408.726,173.433c-2.302,0.46-2.675,0.833-3.135,3.135c-0.46-2.302-0.833-2.675-3.135-3.135
			c2.302-0.46,2.675-0.833,3.135-3.135C406.051,172.6,406.424,172.973,408.726,173.433z"/>
		<path style="fill:#FF1C1F;" d="M383.375,201.402c-3.946,0.789-4.586,1.429-5.375,5.374c-0.789-3.946-1.429-4.585-5.375-5.374
			c3.946-0.789,4.585-1.429,5.375-5.374C378.789,199.973,379.429,200.613,383.375,201.402z"/>
		<path style="fill:#FF1C1F;" d="M328.978,110.41c-2.302,0.46-2.675,0.833-3.135,3.135c-0.46-2.302-0.833-2.675-3.135-3.135
			c2.302-0.46,2.675-0.833,3.135-3.135C326.303,109.576,326.676,109.949,328.978,110.41z"/>
		<path style="fill:#FF1C1F;" d="M387.895,129.591c-4.604,0.92-5.35,1.667-6.27,6.27c-0.921-4.604-1.667-5.35-6.27-6.27
			c4.603-0.921,5.35-1.667,6.27-6.27C382.545,127.924,383.291,128.67,387.895,129.591z"/>
		<path style="fill:#FF1C1F;" d="M311.941,83.197c-3.946,0.789-4.586,1.429-5.375,5.375c-0.789-3.946-1.429-4.586-5.374-5.375
			c3.946-0.789,4.585-1.429,5.374-5.374C307.356,81.768,307.996,82.408,311.941,83.197z"/>
		<path style="fill:#FF1C1F;" d="M227.868,165.874c-4.932,0.986-5.732,1.786-6.718,6.718c-0.986-4.932-1.786-5.732-6.718-6.718
			c4.932-0.986,5.732-1.786,6.718-6.718C222.136,164.088,222.935,164.888,227.868,165.874z"/>
		<path style="fill:#FF1C1F;" d="M279.984,78.094c-2.959,0.592-3.439,1.072-4.031,4.031c-0.592-2.959-1.072-3.439-4.031-4.031
			c2.959-0.592,3.439-1.071,4.031-4.031C276.544,77.023,277.024,77.503,279.984,78.094z"/>
		<path style="fill:#FF1C1F;" d="M228.274,212.74c-3.288,0.658-3.821,1.19-4.479,4.479c-0.658-3.288-1.19-3.821-4.479-4.479
			c3.288-0.658,3.821-1.191,4.479-4.479C224.453,211.55,224.986,212.083,228.274,212.74z"/>
		<path style="fill:#FF1C1F;" d="M280.029,221.528c-3.617,0.723-4.203,1.31-4.927,4.927c-0.723-3.617-1.31-4.203-4.927-4.927
			c3.617-0.723,4.203-1.31,4.927-4.927C275.826,220.218,276.412,220.804,280.029,221.528z"/>
		<path style="fill:#FF1C1F;" d="M274.927,105.307c-3.617,0.723-4.203,1.31-4.927,4.927c-0.723-3.617-1.31-4.203-4.927-4.927
			c3.617-0.723,4.203-1.31,4.927-4.927C270.723,103.997,271.31,104.584,274.927,105.307z"/>
	</g>
</g>
</svg>
